Gidole-Thin.sfdir
StartChar: exclam
Encoding: 33 33 81
GlifName: exclam
Width: 500
VWidth: 0
Flags: W
HStem: -16 220<159.109 340.891> 1396 20G<172 328>
VStem: 140 220<3.10925 184.891> 172 156<557.098 1416>
LayerCount: 3
Back
Fore
SplineSet
250 204 m 0xe0
 315 204 360 159 360 94 c 0
 360 29 315 -16 250 -16 c 0
 185 -16 140 29 140 94 c 0
 140 159 185 204 250 204 c 0xe0
172 1416 m 1xd0
 328 1416 l 1
 328 1051 l 2
 328 812 308 388 308 388 c 1
 192 388 l 1
 192 388 172 810 172 1051 c 2
 172 1416 l 1xd0
EndSplineSet
Validated: 1
Layer: 2
EndChar
StartChar: quotesingle
Encoding: 39 39 94
GlifName: quotesingle
Width: 440
Flags: W
HStem: 1006 424<171 269>
VStem: 120 200<1044.25 1415.18> 171 98<1006 1092.65>
LayerCount: 3
Back
Fore
SplineSet
120 1330 m 0xc0
 120 1389 161 1430 220 1430 c 0
 279 1430 320 1389 320 1330 c 0xc0
 320 1313 317 1295 314 1278 c 2
 269 1006 l 1
 171 1006 l 1xa0
 126 1278 l 2
 123 1295 120 1313 120 1330 c 0xc0
EndSplineSet
Validated: 1
Layer: 2
EndChar
StartChar: parenright
Encoding: 41 41 77
GlifName: parenright
Width: 653
Flags: W
VStem: 403 140<76.4363 1005.56>
LayerCount: 3
Back
Fore
SplineSet
186 1521 m 1
 340 1396 441 1227 492 1046 c 0
 537 880 543 708 543 541 c 0
 543 374 537 202 492 36 c 0
 441 -145 340 -314 186 -439 c 1
 110 -351 l 1
 227 -243 311 -103 354 56 c 0
 396 211 403 376 403 541 c 0
 403 706 396 871 354 1026 c 0
 311 1185 227 1325 110 1433 c 1
 186 1521 l 1
EndSplineSet
Validated: 1
Layer: 2
Substitution2: "'case' subtable" parenright.case
EndChar
StartChar: slash
Encoding: 47 47 72
GlifName: slash
Width: 930
VWidth: 0
Flags: W
HStem: 1396 20G<669.417 824>
LayerCount: 3
Back
Fore
SplineSet
677 1416 m 1
 824 1416 l 1
 253 -90 l 1
 106 -90 l 1
 677 1416 l 1
EndSplineSet
Validated: 1
Layer: 2
Substitution2: "Single Substitution lookup 18 subtable" fraction
EndChar
StartChar: one
Encoding: 49 49 3
GlifName: one
Width: 758
Flags: W
HStem: 0 21G<382 538> 1396 20G<381.29 538>
VStem: 382 156<0 1235>
LayerCount: 3
Back
Fore
SplineSet
538 0 m 1
 382 0 l 1
 382 1235 l 1
 185 1133 l 1
 120 1261 l 1
 420 1416 l 1
 538 1416 l 1
 538 0 l 1
EndSplineSet
Validated: 1
Layer: 2
Substitution2: "Single Substitution lookup 40 subtable" one.d
Substitution2: "Single Substitution lookup 38 subtable" one.n
Substitution2: "Single Substitution lookup 36 subtable" one.n
Substitution2: "Single Substitution lookup 34 subtable" one.n
Substitution2: "Single Substitution lookup 32 subtable" one.n
Substitution2: "Single Substitution lookup 30 subtable" one.n
Substitution2: "Single Substitution lookup 28 subtable" one.n
Substitution2: "Single Substitution lookup 26 subtable" one.n
Substitution2: "Single Substitution lookup 24 subtable" one.n
Substitution2: "Single Substitution lookup 22 subtable" one.n
Substitution2: "Single Substitution lookup 20 subtable" one.n
Substitution2: "'dnom' Denominators subtable" one.d
Substitution2: "'numr' Numerators subtable" one.n
Substitution2: "'sups' subtable" one.sup
Substitution2: "'subs' subtable" one.sub
Substitution2: "'tnum' subtable" one.tab
EndChar
StartChar: five
Encoding: 53 53 7
GlifName: five
Width: 1108
Flags: W
HStem: -19 140<375.972 695.617> 731 135<368.469 695.209> 1276 140<356 894>
VStem: 200 156<815 1276> 816 156<250.963 604.707>
LayerCount: 3
Back
Fore
SplineSet
894 1416 m 1
 894 1276 l 1
 356 1276 l 1
 356 815 l 1
 424 850 496 866 579 866 c 0
 793 866 972 686 972 426 c 0
 972 177 805 -19 549 -19 c 0
 383 -19 247 59 161 145 c 1
 260 252 l 1
 329 184 428 121 549 121 c 0
 720 121 816 260 816 426 c 0
 816 600 715 731 549 731 c 0
 462 731 384 702 322 661 c 1
 200 719 l 1
 200 1416 l 1
 894 1416 l 1
EndSplineSet
Validated: 1
Layer: 2
Substitution2: "Single Substitution lookup 40 subtable" five.d
Substitution2: "Single Substitution lookup 38 subtable" five.n
Substitution2: "Single Substitution lookup 36 subtable" five.n
Substitution2: "Single Substitution lookup 34 subtable" five.n
Substitution2: "Single Substitution lookup 32 subtable" five.n
Substitution2: "Single Substitution lookup 30 subtable" five.n
Substitution2: "Single Substitution lookup 28 subtable" five.n
Substitution2: "Single Substitution lookup 26 subtable" five.n
Substitution2: "Single Substitution lookup 24 subtable" five.n
Substitution2: "Single Substitution lookup 22 subtable" five.n
Substitution2: "Single Substitution lookup 20 subtable" five.n
Substitution2: "'dnom' Denominators subtable" five.d
Substitution2: "'numr' Numerators subtable" five.n
Substitution2: "'sups' subtable" five.sup
Substitution2: "'subs' subtable" five.sub
Substitution2: "'tnum' subtable" five.tab
EndChar
StartChar: six
Encoding: 54 54 8
GlifName: six
Width: 1108
Flags: W
HStem: -19 140<409.401 698.599> 761 130<438.779 698.175> 1396 20G<550.645 727>
VStem: 131 156<253.836 627.381> 821 156<253.423 625.558>
LayerCount: 3
Back
Fore
SplineSet
554 761 m 0
 407 761 287 648 287 441 c 0
 287 234 407 121 554 121 c 0
 701 121 821 234 821 441 c 0
 821 648 701 761 554 761 c 0
584 891 m 0
 821 891 977 685 977 441 c 0
 977 187 813 -19 554 -19 c 0
 295 -19 131 188 131 442 c 0
 131 587 184 689 240 796 c 2
 561 1416 l 1
 727 1416 l 1
 437 864 l 1
 482 883 532 891 584 891 c 0
EndSplineSet
Validated: 1
Layer: 2
Substitution2: "Single Substitution lookup 40 subtable" six.d
Substitution2: "Single Substitution lookup 38 subtable" six.n
Substitution2: "Single Substitution lookup 36 subtable" six.n
Substitution2: "Single Substitution lookup 34 subtable" six.n
Substitution2: "Single Substitution lookup 32 subtable" six.n
Substitution2: "Single Substitution lookup 30 subtable" six.n
Substitution2: "Single Substitution lookup 28 subtable" six.n
Substitution2: "Single Substitution lookup 26 subtable" six.n
Substitution2: "Single Substitution lookup 24 subtable" six.n
Substitution2: "Single Substitution lookup 22 subtable" six.n
Substitution2: "Single Substitution lookup 20 subtable" six.n
Substitution2: "'dnom' Denominators subtable" six.d
Substitution2: "'numr' Numerators subtable" six.n
Substitution2: "'sups' subtable" six.sup
Substitution2: "'subs' subtable" six.sub
Substitution2: "'tnum' subtable" six.tab
EndChar
StartChar: colon
Encoding: 58 58 12
GlifName: colon
Width: 500
Flags: W
HStem: -16 220<159.109 340.891> 881 220<159.109 340.891>
VStem: 140 220<3.10925 184.891 900.109 1081.89>
LayerCount: 3
Back
Fore
SplineSet
250 204 m 0
 315 204 360 159 360 94 c 0
 360 29 315 -16 250 -16 c 0
 185 -16 140 29 140 94 c 0
 140 159 185 204 250 204 c 0
250 1101 m 0
 315 1101 360 1056 360 991 c 0
 360 926 315 881 250 881 c 0
 185 881 140 926 140 991 c 0
 140 1056 185 1101 250 1101 c 0
EndSplineSet
Validated: 1
Layer: 2
Substitution2: "Single Substitution lookup 16 subtable" colon.case
Substitution2: "'case' subtable" colon.case
EndChar
StartChar: less
Encoding: 60 60 105
GlifName: less
Width: 963
Flags: W
VStem: 160 677
LayerCount: 3
Back
Fore
SplineSet
160 597 m 1
 768 951 l 1
 837 831 l 1
 327 541 l 1
 837 251 l 1
 768 131 l 1
 160 485 l 1
 160 597 l 1
EndSplineSet
Validated: 1
Layer: 2
EndChar
StartChar: equal
Encoding: 61 61 82
GlifName: equal
Width: 1060
Flags: W
HStem: 314 134<180 880> 634 134<180 880>
LayerCount: 3
Back
Fore
SplineSet
180 634 m 1
 180 768 l 1
 880 768 l 1
 880 634 l 1
 180 634 l 1
180 314 m 1
 180 448 l 1
 880 448 l 1
 880 314 l 1
 180 314 l 1
EndSplineSet
Validated: 1
Layer: 2
EndChar
StartChar: greater
Encoding: 62 62 106
GlifName: greater
Width: 963
Flags: W
VStem: 126 677
LayerCount: 3
Back
Fore
SplineSet
803 597 m 1
 803 485 l 1
 195 131 l 1
 126 251 l 1
 636 541 l 1
 126 831 l 1
 195 951 l 1
 803 597 l 1
EndSplineSet
Validated: 1
Layer: 2
EndChar
StartChar: at
Encoding: 64 64 115
GlifName: at
Width: 1519
VWidth: 1000
Flags: W
HStem: -232 134<506.511 1257.49> 200 134<794.376 1085.88> 743 124<796.926 1189> 1180 134<508.655 1085.6>
VStem: 180 150<102.687 983.001> 569 150<409.031 667.983> 1189 150<216 331 442.409 743 867 1077.68>
LayerCount: 3
Back
Fore
SplineSet
719 537 m 0
 719 430 791 334 934 334 c 0
 1037 334 1134 382 1170 495 c 0
 1189 555 1189 620 1189 743 c 1
 1044 743 l 2
 950 743 900 743 854 729 c 0
 766 702 719 627 719 537 c 0
821 1314 m 0
 972 1314 1111 1303 1214 1216 c 0
 1339 1110 1339 980 1339 867 c 2
 1339 216 l 1
 1189 216 l 1
 1189 331 l 1
 1120 252 1033 200 914 200 c 0
 709 200 569 347 569 537 c 0
 569 677 652 800 804 846 c 0
 873 867 942 867 1038 867 c 2
 1189 867 l 1
 1189 964 1189 1033 1132 1098 c 0
 1067 1172 957 1180 822 1180 c 0
 668 1180 545 1175 458 1105 c 0
 330 1001 330 775 330 541 c 0
 330 271 339 75 458 -23 c 0
 538 -89 633 -98 812 -98 c 0
 1043 -98 1153 -98 1301 -38 c 1
 1354 -163 l 1
 1188 -232 1045 -232 812 -232 c 0
 598 -232 473 -219 356 -121 c 0
 190 18 180 247 180 541 c 0
 180 836 190 1068 356 1203 c 0
 478 1302 623 1314 821 1314 c 0
EndSplineSet
Validated: 1
Layer: 2
Substitution2: "'ss06' subtable" at.alt
Substitution2: "'case' subtable" at.case
EndChar
StartChar: A
Encoding: 65 65 13
GlifName: A_
Width: 1190
Flags: W
HStem: 0 21G<40 209.491 980.509 1150> 342 140<360 830> 1396 20G<513.22 676.78>
AnchorPoint: "DoubleTop" 20 0 basechar 0
AnchorPoint: "Apos" 20 0 basechar 0
AnchorPoint: "Center" 595 1380 basechar 0
AnchorPoint: "Bottom" 1075 0 basechar 0
AnchorPoint: "Top" 595 1416 basechar 0
LayerCount: 3
Back
Fore
SplineSet
830 482 m 1
 595 1205 l 1
 360 482 l 1
 830 482 l 1
520 1416 m 1
 670 1416 l 1
 1150 0 l 1
 987 0 l 1
 876 342 l 1
 314 342 l 1
 203 0 l 1
 40 0 l 1
 520 1416 l 1
EndSplineSet
Validated: 1
Layer: 2
EndChar
StartChar: B
Encoding: 66 66 14
GlifName: B_
Width: 1166
Flags: W
HStem: 0 140<336 787.978> 652 140<336 748.285> 1276 140<336 747.922>
VStem: 180 156<140 652 792 1276> 842 156<883.503 1181.08> 890 156<240.785 551.321>
LayerCount: 3
Back
Fore
SplineSet
336 792 m 1xf8
 532 792 l 2
 610 792 664 792 710 812 c 0
 809 855 842 955 842 1034 c 0
 842 1095 819 1214 702 1259 c 0
 658 1276 602 1276 532 1276 c 2
 336 1276 l 1
 336 792 l 1xf8
336 652 m 1
 336 140 l 1
 562 140 l 2
 643 140 701 140 753 163 c 0
 861 211 890 321 890 396 c 0xf4
 890 476 857 589 743 633 c 0
 694 652 641 652 562 652 c 2
 336 652 l 1
846 735 m 1
 968 672 1046 555 1046 396 c 0xf4
 1046 233 955 71 771 19 c 0
 704 0 640 0 562 0 c 2
 180 0 l 1
 180 1416 l 1
 532 1416 l 2
 611 1416 666 1416 726 1400 c 0
 884 1358 998 1219 998 1034 c 0xf8
 998 902 941 799 846 735 c 1
EndSplineSet
Validated: 1
Layer: 2
EndChar
StartChar: C
Encoding: 67 67 15
GlifName: C_
Width: 1114
Flags: W
HStem: -19 140<445.071 823.011> 1295 140<446.451 815.402>
VStem: 130 156<307.452 1109.37>
AnchorPoint: "Bottom" 618 0 basechar 0
AnchorPoint: "Top" 618 1416 basechar 0
LayerCount: 3
Back
Fore
SplineSet
618 1435 m 4
 772 1435 897 1381 992 1314 c 1
 912 1194 l 1
 832 1251 738 1295 618 1295 c 0
 473 1295 382 1230 336 1125 c 0
 289 1017 286 858 286 708 c 0
 286 558 289 399 336 291 c 0
 382 186 473 121 618 121 c 0
 748 121 862 172 942 240 c 1
 1030 124 l 1
 927 43 786 -19 618 -19 c 0
 404 -19 259 86 191 238 c 0
 133 367 130 543 130 708 c 0
 130 876 134 1053 191 1178 c 0
 262 1334 409 1435 618 1435 c 4
EndSplineSet
Validated: 1
Layer: 2
EndChar
StartChar: F
Encoding: 70 70 19
GlifName: F_
Width: 1060
Flags: W
HStem: 0 21G<180 336> 652 140<336 860> 1276 140<336 940>
VStem: 180 156<0 652 792 1276>
LayerCount: 3
Back
Fore
SplineSet
180 1416 m 1
 940 1416 l 1
 940 1276 l 1
 336 1276 l 1
 336 792 l 1
 860 792 l 1
 860 652 l 1
 336 652 l 1
 336 0 l 1
 180 0 l 1
 180 1416 l 1
EndSplineSet
Validated: 1
Layer: 2
EndChar
StartChar: H
Encoding: 72 72 20
GlifName: H_
Width: 1280
VWidth: 0
Flags: W
HStem: 0 21G<180 336 944 1100> 652 140<336 944> 1396 20G<180 336 944 1100>
VStem: 180 156<0 652 792 1416> 944 156<0 652 792 1416>
AnchorPoint: "Bottom" 630 0 basechar 0
AnchorPoint: "Top" 640 1416 basechar 0
LayerCount: 3
Back
Fore
SplineSet
180 1416 m 1
 336 1416 l 1
 336 792 l 1
 944 792 l 1
 944 1416 l 1
 1100 1416 l 1
 1100 0 l 1
 944 0 l 1
 944 652 l 1
 336 652 l 1
 336 0 l 1
 180 0 l 1
 180 1416 l 1
EndSplineSet
Validated: 1
Layer: 2
EndChar
StartChar: J
Encoding: 74 74 22
GlifName: J_
Width: 958
Flags: W
HStem: -19 140<250.237 556.66> 1396 20G<642 798>
VStem: 642 156<205.913 1416>
AnchorPoint: "Bottom" 425 0 basechar 0
AnchorPoint: "Top" 720 1416 basechar 0
LayerCount: 3
Back
Fore
SplineSet
642 1416 m 1
 798 1416 l 1
 798 433 l 2
 798 358 798 308 787 257 c 0
 752 96 614 -19 425 -19 c 0
 269 -19 163 41 80 103 c 1
 169 219 l 1
 231 168 317 121 415 121 c 0
 515 121 596 170 627 264 c 0
 642 309 642 363 642 433 c 2
 642 1416 l 1
EndSplineSet
Validated: 1
Layer: 2
EndChar
StartChar: K
Encoding: 75 75 34
GlifName: K_
Width: 1179
Flags: W
HStem: 0 21G<180 336 929.994 1129> 1396 20G<180 336 919.325 1111>
VStem: 180 156<0 400 601 1416>
AnchorPoint: "Bottom" 614 0 basechar 0
LayerCount: 3
Back
Fore
SplineSet
336 601 m 1
 934 1416 l 1
 1111 1416 l 1
 606 735 l 1
 1129 0 l 1
 944 0 l 1
 507 624 l 1
 336 400 l 1
 336 0 l 1
 180 0 l 1
 180 1416 l 1
 336 1416 l 1
 336 601 l 1
EndSplineSet
Validated: 1
Layer: 2
EndChar
StartChar: L
Encoding: 76 76 23
GlifName: L_
Width: 1010
Flags: W
HStem: 0 140<336 930> 1396 20G<180 336>
VStem: 180 156<140 1416>
AnchorPoint: "Apos" 500 1416 basechar 0
AnchorPoint: "Bottom" 541 0 basechar 0
AnchorPoint: "Center" 336 722 basechar 0
AnchorPoint: "Top" 259 1416 basechar 0
LayerCount: 3
Back
Fore
SplineSet
180 1416 m 5
 336 1416 l 5
 336 140 l 5
 930 140 l 5
 930 0 l 5
 180 0 l 5
 180 1416 l 5
EndSplineSet
Validated: 1
Layer: 2
EndChar
StartChar: P
Encoding: 80 80 31
GlifName: P_
Width: 1126
Flags: W
HStem: 0 21G<180 336> 516 140<336 732.375> 1276 140<336 732.375>
VStem: 180 156<0 516 656 1276> 870 156<794.316 1137.68>
LayerCount: 3
Back
Fore
SplineSet
512 1276 m 2
 336 1276 l 1
 336 656 l 1
 512 656 l 2
 593 656 689 656 768 724 c 0
 827 775 870 860 870 966 c 0
 870 1072 827 1157 768 1208 c 0
 689 1276 593 1276 512 1276 c 2
512 1416 m 2
 595 1416 710 1416 821 1349 c 0
 940 1277 1026 1141 1026 966 c 0
 1026 791 940 655 821 583 c 0
 710 516 595 516 512 516 c 2
 336 516 l 1
 336 0 l 1
 180 0 l 1
 180 1416 l 1
 512 1416 l 2
EndSplineSet
Validated: 1
Layer: 2
EndChar
StartChar: R
Encoding: 82 82 32
GlifName: R_
Width: 1151
Flags: W
HStem: 0 21G<180 336 872.863 1051> 556 140<336 628> 1276 140<336 748.14>
VStem: 180 156<0 556 696 1276> 870 156<821.173 1153.72>
AnchorPoint: "Bottom" 601 0 basechar 0
AnchorPoint: "Top" 556 1416 basechar 0
LayerCount: 3
Back
Fore
SplineSet
507 1416 m 2
 618 1416 687 1416 777 1379 c 0
 926 1318 1026 1170 1026 986 c 0
 1026 800 923 651 774 592 c 1
 1051 0 l 1
 882 0 l 1
 628 556 l 1
 336 556 l 1
 336 0 l 1
 180 0 l 1
 180 1416 l 1
 507 1416 l 2
507 1276 m 2
 336 1276 l 1
 336 696 l 1
 507 696 l 2
 595 696 654 696 711 720 c 0
 837 773 870 901 870 986 c 0
 870 1071 837 1199 711 1252 c 0
 654 1276 595 1276 507 1276 c 2
EndSplineSet
Validated: 1
Layer: 2
EndChar
StartChar: S
Encoding: 83 83 35
GlifName: S_
Width: 1045
Flags: W
HStem: -19 140<307.351 679.448> 1295 140<364.153 727.724>
VStem: 114 156<915.619 1204.29> 789 156<229.74 533.193>
AnchorPoint: "Bottom" 517 0 basechar 0
AnchorPoint: "Top" 517 1416 basechar 0
LayerCount: 3
Back
Fore
SplineSet
517 -19 m 4
 349 -19 202 49 84 115 c 5
 153 241 l 5
 255 182 382 121 517 121 c 4
 725 121 789 270 789 381 c 4
 789 471 748 577 638 624 c 4
 543 665 418 663 306 728 c 4
 172 806 114 935 114 1061 c 4
 114 1260 261 1435 517 1435 c 4
 655 1435 785 1385 890 1335 c 5
 830 1206 l 5
 743 1248 632 1295 517 1295 c 4
 345 1295 270 1179 270 1061 c 4
 270 987 302 895 390 846 c 4
 478 797 591 798 697 754 c 4
 871 681 945 529 945 381 c 4
 945 172 795 -19 517 -19 c 4
EndSplineSet
Validated: 1
Layer: 2
EndChar
StartChar: V
Encoding: 86 86 25
GlifName: V_
Width: 1190
Flags: W
HStem: 0 21G<513.22 676.78> 1396 20G<40 209.506 980.494 1150>
LayerCount: 3
Back
Fore
SplineSet
40 1416 m 1
 203 1416 l 1
 595 211 l 1
 987 1416 l 1
 1150 1416 l 1
 670 0 l 1
 520 0 l 1
 40 1416 l 1
EndSplineSet
Validated: 1
Layer: 2
EndChar
StartChar: W
Encoding: 87 87 26
GlifName: W_
Width: 1500
VWidth: 0
Flags: W
HStem: 0 21G<366.607 528.958 971.042 1133.39> 1396 20G<60 224.242 1275.76 1440>
AnchorPoint: "Top" 750 1416 basechar 0
LayerCount: 3
Back
Fore
SplineSet
220 1416 m 1
 462 275 l 1
 675 986 l 1
 825 986 l 1
 1038 275 l 1
 1280 1416 l 1
 1440 1416 l 1
 1129 0 l 1
 977 0 l 1
 750 762 l 1
 523 0 l 1
 371 0 l 1
 60 1416 l 1
 220 1416 l 1
EndSplineSet
Validated: 1
Layer: 2
EndChar
StartChar: Z
Encoding: 90 90 38
GlifName: Z_
Width: 1027
VWidth: 0
Flags: W
HStem: 0 140<266 947> 1276 140<105 741>
AnchorPoint: "Bottom" 514 0 basechar 0
AnchorPoint: "Top" 514 1416 basechar 0
LayerCount: 3
Back
Fore
SplineSet
105 1276 m 1
 105 1416 l 1
 927 1416 l 1
 927 1315 l 1
 266 140 l 1
 947 140 l 1
 947 0 l 1
 80 0 l 1
 80 101 l 1
 741 1276 l 1
 105 1276 l 1
EndSplineSet
Validated: 1
Layer: 2
EndChar
StartChar: bracketleft
Encoding: 91 91 71
GlifName: bracketleft
Width: 652
VWidth: 0
Flags: W
HStem: -456 124<310 502> 1414 124<310 502>
VStem: 170 332<-456 -332 1414 1538> 170 140<-332 1414>
LayerCount: 3
Back
Fore
SplineSet
170 1538 m 1xe0
 502 1538 l 1
 502 1414 l 1xe0
 310 1414 l 1
 310 -332 l 1xd0
 502 -332 l 1
 502 -456 l 1
 170 -456 l 1
 170 1538 l 1xe0
EndSplineSet
Validated: 1
Layer: 2
Substitution2: "'case' subtable" bracketleft.case
EndChar
StartChar: bracketright
Encoding: 93 93 49
GlifName: bracketright
Width: 652
VWidth: 0
Flags: W
HStem: -456 124<150 342> 1414 124<150 342>
VStem: 150 332<-456 -332 1414 1538> 342 140<-332 1414>
LayerCount: 3
Back
Fore
SplineSet
482 1538 m 1xe0
 482 -456 l 1
 150 -456 l 1
 150 -332 l 1xe0
 342 -332 l 1
 342 1414 l 1xd0
 150 1414 l 1
 150 1538 l 1
 482 1538 l 1xe0
EndSplineSet
Validated: 1
Layer: 2
Substitution2: "'case' subtable" bracketright.case
EndChar
StartChar: underscore
Encoding: 95 95 129
GlifName: underscore
Width: 840
Flags: W
HStem: -150 150<30 810>
LayerCount: 3
Back
Fore
SplineSet
30 0 m 1
 810 0 l 1
 810 -150 l 1
 30 -150 l 1
 30 0 l 1
EndSplineSet
Validated: 1
Layer: 2
EndChar
StartChar: a
Encoding: 97 97 489
GlifName: a
Width: 940
Flags: W
HStem: -16 50<298.59 552.476> 0 21G<740 790> 563 50<305.552 740> 1048 50<299.011 573.505>
VStem: 100 50<183.727 414.412> 740 50<0 181 227.212 563 613 884.241>
AnchorPoint: "Top" 415 1082 basechar 0
AnchorPoint: "Bottom" 715 0 basechar 0
AnchorPoint: "Center" 415 1062 basechar 0
LayerCount: 3
Back
SplineSet
485 563 m 6xbc
 410 563 311 563 235 498 c 4
 185 455 150 386 150 299 c 4
 150 145 257 34 425 34 c 4
 537 34 627 85 677 154 c 4
 740 242 740 346 740 450 c 6
 740 563 l 5
 485 563 l 6xbc
445 1098 m 4
 560 1098 655 1051 713 983 c 4
 790 893 790 795 790 725 c 6
 790 0 l 5
 740 0 l 5x7c
 740 181 l 5
 689.206349206 58 572.317460317 -16 420 -16 c 4
 233 -16 100 115 100 299 c 4
 100 402 143 485 203 536 c 4
 293 613 403 613 485 613 c 6
 740 613 l 5
 740 725 l 6
 740 791 740 878 672 954 c 4
 622 1010 543 1048 445 1048 c 4
 348.860759494 1048 270.29535865 1012.5 200 977 c 5
 177 1021 l 5
 251.790697674 1060.05797101 342.162790698 1098 445 1098 c 4
EndSplineSet
Fore
SplineSet
485 563 m 2xbc
 410 563 311 563 235 498 c 0
 185 455 150 386 150 299 c 0
 150 145 257 34 425 34 c 0
 537 34 627 85 677 154 c 0
 740 242 740 346 740 450 c 2
 740 563 l 1
 485 563 l 2xbc
445 1098 m 0
 560 1098 655 1051 713 983 c 0
 790 893 790 795 790 725 c 2
 790 0 l 1
 740 0 l 1x7c
 740 181 l 1
 689 58 572 -16 420 -16 c 0
 233 -16 100 115 100 299 c 0
 100 402 143 485 203 536 c 0
 293 613 403 613 485 613 c 2
 740 613 l 1
 740 725 l 2
 740 791 740 878 672 954 c 0
 622 1010 543 1048 445 1048 c 0
 347 1048 267 1015 196 981 c 1
 175 1026 l 1
 250 1063 341 1098 445 1098 c 0
EndSplineSet
Layer: 2
SplineSet
740 613 m 5
 740 725 l 4
 740 767.941623329 738.736706247 809.491974344 728.734375 847.659179688 c 4
 718.701775192 885.943465572 699.989877751 921.982543242 674.16796875 951.557617188 c 4
 646.514277338 983.230675263 610.612826532 1008.05137302 571.135742188 1024.1328125 c 4
 531.62272736 1040.22826742 488.350468479 1047.85532181 444.916992188 1048 c 4
 403.940149745 1048.13649564 362.666758583 1041.65134965 322.51953125 1030.35058594 c 4
 279.484063132 1018.23652499 237.496893964 1000.69694905 196.091796875 980.842773438 c 5
 174.47265625 1025.92675781 l 5
 217.383853339 1046.50323184 261.995625122 1065.25640056 308.970703125 1078.47949219 c 4
 352.894498852 1090.84387121 398.722040342 1098.15443758 445.083007812 1098 c 4
 494.205625092 1097.83636594 543.794581161 1089.25927434 589.999023438 1070.4375 c 4
 636.238946462 1051.60123003 678.611916501 1022.49074488 711.83203125 984.442382812 c 4
 742.99197699 948.753975329 765.17145159 905.859391923 777.1015625 860.334960938 c 4
 789.062190655 814.693352937 790 768.697148267 790 725 c 4
 790 450 l 4
 790 396.005587184 790.185312619 340.262081886 780.842773438 284.2265625 c 4
 771.470147447 228.007666451 751.732390751 172.037237464 717.259765625 124.353515625 c 4
 683.990151005 78.3339348944 638.462255148 42.1462610087 587.318359375 18.6865234375 c 4
 536.364295595 -4.68627894081 480.540184299 -15.9288673181 425.032226562 -16 c 4
 342.948277758 -16.1051886844 257.947827964 9.883514189 195.947265625 67.71875 c 4
 164.073289864 97.4513404749 139.516221948 134.317677748 123.510742188 174.440429688 c 4
 107.542265808 214.470529698 99.9318441456 257.371547624 100 300.040039062 c 4
 100.06984648 343.767515111 108.208446058 387.761662448 125.302734375 428.572265625 c 4
 142.440952618 469.48682454 168.741924687 506.730587254 202.692382812 535.94921875 c 4
 242.009765214 569.786727123 290.01256545 591.251721953 339.370117188 601.997070312 c 4
 388.638778747 612.72354173 437.881455024 613 485 613 c 4
 740 613 l 5
740 563 m 5
 485 563 l 4
 438.123563473 563 392.581841289 562.41071221 350.006835938 553.141601562 c 4
 307.520885972 543.892116396 267.233396324 525.527231302 235.307617188 498.05078125 c 4
 207.625228045 474.226648518 185.697901068 443.340079557 171.419921875 409.25390625 c 4
 157.098690034 375.063165599 150.060038491 337.547664936 150 299.959960938 c 4
 149.941407964 263.278893816 156.520036444 226.637652362 169.952148438 192.965820312 c 4
 183.347078616 159.387275554 203.903168115 128.673979563 230.052734375 104.28125 c 4
 280.656891945 57.0766090464 353.060942773 33.9078527143 424.967773438 34 c 4
 473.790285977 34.0625655341 522.596691165 44.0076838224 566.47265625 64.1337890625 c 4
 610.159359748 84.1727228802 648.884805306 115.116331468 676.740234375 153.646484375 c 4
 705.580907532 193.539898734 723.125852216 242.072952381 731.524414062 292.44921875 c 4
 739.953039434 343.008468828 740 395.928425867 740 450 c 4
 740 563 l 5
EndSplineSet
Substitution2: "'ss01' subtable" a.alt
EndChar
StartChar: b
Encoding: 98 98 54
GlifName: b
Width: 1115
Flags: W
HStem: -16 134<425.104 723.781> 0 21G<160 310> 964 134<425.104 723.781>
VStem: 160 150<0 115 242.055 839.945 967 1496> 840 150<241.25 840.75>
LayerCount: 3
Back
Fore
SplineSet
595 1098 m 0x78
 735 1098 849 1031 910 938 c 0
 982 827 990 708 990 541 c 0
 990 374 982 255 910 144 c 0
 849 51 735 -16 595 -16 c 0xb8
 471 -16 382 35 310 115 c 1
 310 0 l 1
 160 0 l 1
 160 1496 l 1
 310 1496 l 1
 310 967 l 1
 382 1047 471 1098 595 1098 c 0x78
575 964 m 0
 482 964 412 924 370 866 c 0
 315 790 310 683 310 541 c 0
 310 399 315 292 370 216 c 0
 412 158 482 118 575 118 c 0
 668 118 738 158 780 216 c 0
 835 292 840 399 840 541 c 0
 840 683 835 790 780 866 c 0
 738 924 668 964 575 964 c 0
EndSplineSet
Validated: 1
Layer: 2
EndChar
StartChar: c
Encoding: 99 99 53
GlifName: c
Width: 964
Flags: W
HStem: -16 134<389.816 724.571> 964 134<390.045 715.229>
VStem: 125 150<243.538 837.921>
AnchorPoint: "Bottom" 535 0 basechar 0
AnchorPoint: "Top" 535 1082 basechar 0
LayerCount: 3
Back
Fore
SplineSet
535 1098 m 0
 661 1098 777 1050 862 997 c 1
 791 879 l 1
 723 923 629 964 535 964 c 0
 427 964 369 914 331 859 c 0
 275 777 275 645 275 547 c 0
 275 429 275 315 326 230 c 0
 376 147 460 118 535 118 c 0
 632 118 740 162 808 208 c 1
 884 94 l 1
 795 34 661 -16 535 -16 c 0
 377 -16 254 63 194 167 c 0
 126 285 125 405 125 547 c 0
 125 664 126 800 194 915 c 0
 256 1018 374 1098 535 1098 c 0
EndSplineSet
Validated: 1
Layer: 2
EndChar
StartChar: d
Encoding: 100 100 48
GlifName: d
Width: 1115
Flags: W
HStem: -16 134<391.219 689.896> 0 21G<805 955> 964 134<391.219 689.896>
VStem: 125 150<241.25 840.75> 805 150<0 115 242.055 839.945 967 1496>
AnchorPoint: "Apos" 1054 1496 basechar 0
AnchorPoint: "Bottom" 520 0 basechar 0
LayerCount: 3
Back
Fore
SplineSet
520 1098 m 0xb8
 644 1098 733 1047 805 967 c 1
 805 1496 l 1
 955 1496 l 1
 955 0 l 1
 805 0 l 1x78
 805 115 l 1
 733 35 644 -16 520 -16 c 0
 380 -16 266 51 205 144 c 0
 133 255 125 374 125 541 c 0
 125 708 133 827 205 938 c 0
 266 1031 380 1098 520 1098 c 0xb8
540 964 m 0
 447 964 377 924 335 866 c 0
 280 790 275 683 275 541 c 0
 275 399 280 292 335 216 c 0
 377 158 447 118 540 118 c 0xb8
 633 118 703 158 745 216 c 0
 800 292 805 399 805 541 c 0
 805 683 800 790 745 866 c 0
 703 924 633 964 540 964 c 0
EndSplineSet
Validated: 1
Layer: 2
EndChar
StartChar: e
Encoding: 101 101 56
GlifName: e
Width: 975
Flags: WO
HStem: -16 50<377.061 672.8> 546 50<175 805> 1048 50<369.256 610.605>
VStem: 125 50<263.205 546 596 823.804> 805 50<596 827.352>
AnchorPoint: "Bottom" 510 0 basechar 0
AnchorPoint: "Top" 490 1082 basechar 0
LayerCount: 3
Back
SplineSet
174.98828125 546 m 6
 174.992249359 544.352314931 174.996893038 542.40806791 175 541.055664062 c 4
 175.15302146 472.211579468 175.037430862 404.289087687 183.66015625 338.310546875 c 4
 192.232624436 272.713945261 211.579194209 208.839539832 248.321289062 157.561523438 c 4
 277.238708913 117.204473688 317.177300669 84.5562695521 362.462890625 63.923828125 c 4
 407.971358054 43.1897738701 458.96434076 34 510.399414062 34 c 4
 556.967546198 34 603.880807436 41.098050651 649.991210938 52.654296875 c 4
 698.076862594 64.7057329646 744.88271719 81.5238518414 789.006835938 103.458984375 c 5
 811.264648438 58.685546875 l 5
 763.641896765 35.0116464869 713.444251584 17.0107490392 662.145507812 4.154296875 c 4
 612.988084136 -8.16568275774 562.043527111 -16 510.399414062 -16 c 4
 453.10458844 -16 394.993587987 -5.84245753947 341.732421875 18.423828125 c 4
 288.503555475 42.675311422 241.815759608 80.7968764661 207.678710938 128.438476562 c 4
 164.331488384 188.934124828 143.327994282 261.080611932 134.08203125 331.830078125 c 4
 124.885399786 402.19707319 125.152619697 472.283838524 125 540.944335938 c 4
 124.975383821 552.080748214 124.943359375 563.252367988 124.943359375 574.455078125 c 4
 124.943359375 630.233435958 125.710937902 686.802492154 132.373046875 743.625976562 c 4
 140.413022744 812.199549617 158.863173407 882.228102913 198.026367188 942.604492188 c 4
 229.392459862 990.96086295 273.066765978 1031.15951802 324.2421875 1058.00976562 c 4
 374.974050305 1084.62771896 432.005881699 1098.00195312 488.930664062 1098.00195312 c 4
 489.30992252 1098.00195312 489.719844033 1098.00123329 490.079101562 1098 c 4
 547.300359113 1097.81865547 604.519859315 1084.14423434 655.431640625 1057.39355469 c 4
 706.43815131 1030.59319871 750.162094079 990.761012702 781.859375 942.780273438 c 4
 818.267460726 887.66813459 837.59809208 824.030935681 846.530273438 760.8125 c 4
 854.77865283 702.437785963 855.001953125 644.366975378 855.001953125 587.560546875 c 4
 855.001953125 583.032054473 855 578.511718264 855 574 c 4
 855 571 l 4
 855 555.867462144 840.729904333 546 830 546 c 4
 174.98828125 546 l 6
174.994140625 596 m 5
 804.999023438 596 l 5
 804.950957212 648.865640936 804.241302132 702.726210406 797.022460938 753.81640625 c 4
 788.825299491 811.832188155 771.220848295 868.172936299 740.140625 915.219726562 c 4
 713.081275167 956.180585776 675.533109735 990.350235161 632.17578125 1013.13183594 c 4
 588.723407413 1035.96269214 539.296294339 1047.84352325 489.920898438 1048 c 4
 489.567270288 1048.00138042 489.264306382 1048.00195312 488.930664062 1048.00195312 c 4
 439.818762777 1048.00195312 390.636058728 1036.38107145 347.47265625 1013.734375 c 4
 304.121370364 990.98941206 266.698296576 956.595953156 239.973632812 915.395507812 c 4
 206.593404997 863.933422072 189.516298926 801.62894134 182.033203125 737.803710938 c 4
 176.598648711 691.452369916 175.25019261 643.949605778 174.994140625 596 c 5
EndSplineSet
Fore
SplineSet
490 1048 m 4
 376 1048 288 989 240 915 c 4
 185 830 176 726 175 596 c 5
 805 596 l 5
 805 733 795 832 740 915 c 4
 691 989 604 1048 490 1048 c 4
490 1098 m 4
 623 1098 726 1029 782 943 c 4
 845 848 855 740 855 588 c 6
 855 546 l 5
 175 546 l 5
 175 381 179 255 248 158 c 4
 301 85 388 34 510 34 c 4
 611 34 710 65 789 103 c 5
 811 58 l 5
 726 18 620 -16 510 -16 c 4
 373 -16 269 43 208 128 c 4
 131 235 125 366 125 541 c 4
 125 707 128 835 198 943 c 4
 254 1029 357 1098 490 1098 c 4
EndSplineSet
Layer: 2
EndChar
StartChar: g
Encoding: 103 103 58
GlifName: g
Width: 1115
Flags: W
HStem: -427 134<289.803 684.209> -16 134<391.219 689.896> 964 134<391.219 689.896> 1062 20G<805 955>
VStem: 125 150<241.25 840.75> 805 150<-171.521 115 242.055 839.945 967 1082>
AnchorPoint: "Bottom" 520 -414 basechar 0
AnchorPoint: "Top" 520 1082 basechar 0
LayerCount: 3
Back
Fore
SplineSet
520 1098 m 0xec
 644 1098 733 1047 805 967 c 1
 805 1082 l 1
 955 1082 l 1xdc
 955 111 l 2
 955 12 955 -65 939 -127 c 0
 886 -332 710 -427 520 -427 c 0
 402 -427 278 -393 184 -354 c 1
 234 -228 l 1
 313 -261 420 -293 520 -293 c 0
 653 -293 762 -229 794 -92 c 0
 805 -44 805 1 805 115 c 1
 733 35 644 -16 520 -16 c 0
 380 -16 266 51 205 144 c 0
 133 255 125 374 125 541 c 0
 125 708 133 827 205 938 c 0
 266 1031 380 1098 520 1098 c 0xec
540 964 m 0xec
 447 964 377 924 335 866 c 0
 280 790 275 683 275 541 c 0
 275 399 280 292 335 216 c 0
 377 158 447 118 540 118 c 0
 633 118 703 158 745 216 c 0
 800 292 805 399 805 541 c 0
 805 683 800 790 745 866 c 0
 703 924 633 964 540 964 c 0xec
EndSplineSet
Validated: 1
Layer: 2
Substitution2: "'ss02' subtable" g.alt
EndChar
StartChar: h
Encoding: 104 104 55
GlifName: h
Width: 1100
Flags: HW
HStem: 0 21G<160 310 800 950> 964 134<412.928 702.292>
VStem: 160 150<0 864.607 968 1496> 800 150<0 863.391>
AnchorPoint: "Bottom" 550 0 basechar 0
AnchorPoint: "Top" 234 1496 basechar 0
LayerCount: 3
Back
Fore
SplineSet
160 1496 m 1
 310 1496 l 1
 310 968 l 1
 382 1047 466 1098 585 1098 c 0
 707 1098 806 1043 867 966 c 0
 950 862 950 734 950 645 c 2
 950 0 l 1
 800 0 l 1
 800 645 l 2
 800 742 800 816 742 884 c 0
 702 931 637 964 555 964 c 0
 473 964 408 931 368 884 c 0
 310 816 310 742 310 645 c 2
 310 0 l 1
 160 0 l 1
 160 1496 l 1
EndSplineSet
Validated: 1
Layer: 2
EndChar
StartChar: k
Encoding: 107 107 67
GlifName: k
Width: 920
Flags: W
HStem: 0 21G<160 210 775.76 850> 1062 20G<752.559 833>
VStem: 160 50<0 333 402 1496>
AnchorPoint: "Bottom" 459 0 basechar 0
LayerCount: 3
Back
Fore
SplineSet
160 1496 m 5
 210 1496 l 1
 210 402 l 1
 769 1082 l 1
 833 1082 l 1
 445 610 l 1
 850 0 l 1
 789 0 l 1
 409 574 l 1
 210 333 l 1
 210 0 l 1
 160 0 l 1
 160 1496 l 5
EndSplineSet
Layer: 2
SplineSet
768 1082 m 5
 833 1082 l 5
 445 610 l 5
 850 0 l 5
 790 0 l 5
 412 570 l 5
 210 324 l 5
 210 0 l 5
 160 0 l 5
 160 1496 l 5
 210 1496 l 5
 210 403 l 5
 768 1082 l 5
EndSplineSet
EndChar
StartChar: l
Encoding: 108 108 50
GlifName: l
Width: 410
VWidth: 0
Flags: HW
HStem: -16 50<223.137 318.067>
VStem: 160 50<57.7968 1496>
AnchorPoint: "Bottom" 310 0 basechar 0
AnchorPoint: "Top" 234 1496 basechar 0
LayerCount: 3
Back
SplineSet
160 1496 m 5
 210 1496 l 5
 210 114 l 4
 210 101.049058802 210.335486384 89.6862292412 212.459960938 80.2158203125 c 4
 214.582262145 70.7544596935 218.66058277 62.0688974508 224.186523438 55.373046875 c 4
 229.737499903 48.6470586878 237.394238559 43.1009349794 245.97265625 39.578125 c 4
 254.620448101 36.027167465 264.756813897 34.2158444622 275.512695312 33.9951171875 c 4
 291.375157534 33.6695950996 308.590827835 36.5943358202 327.073242188 40.3095703125 c 5
 336.926757812 -8.7099609375 l 5
 317.814079513 -12.5522953008 296.963939556 -16.4564211968 274.487304688 -15.9951171875 c 4
 258.939537478 -15.6760168703 242.668730143 -13.1168753091 226.979492188 -6.673828125 c 4
 211.220520943 -0.202288478361 196.819776038 9.98131486197 185.624023438 23.546875 c 4
 174.403589013 37.1419656164 167.308132441 53.0618172452 163.671875 69.271484375 c 4
 160.038138061 85.472347607 160 100.641725522 160 114 c 4
 160 1496 l 5
EndSplineSet
Fore
SplineSet
160 1496 m 1
 210 1496 l 1
 210 114 l 2
 210 91 211 74 223 57 c 0
 234 42 254 34 276 34 c 0
 288 34 301 35 316 38 c 1
 325 -11 l 1
 306 -15 287 -16 269 -16 c 0
 236 -16 203 1 185 24 c 0
 160 56 160 89 160 114 c 2
 160 1496 l 1
EndSplineSet
Validated: 1
Layer: 2
Substitution2: "'ss03' subtable" l.alt
EndChar
StartChar: n
Encoding: 110 110 57
GlifName: n
Width: 1020
Flags: W
HStem: 0 21G<160 210 820 870> 1048 50<387.416 642.836> 1062 20G<160 210>
VStem: 160 50<0 871.912 917 1082> 820 50<0 871.912>
AnchorPoint: "Bottom" 550 0 basechar 0
AnchorPoint: "Top" 575 1082 basechar 0
LayerCount: 3
Back
SplineSet
210 0 m 5
 160 0 l 5
 160 697 l 4
 160 744.768841234 160.732018358 794.787494648 172.840820312 844.508789062 c 4
 184.941933783 894.199657089 208.059044472 941.614289653 241.958984375 980.85546875 c 4
 275.797953135 1020.02566371 319.132030796 1049.99825516 366.446289062 1069.43457031 c 4
 413.66112191 1088.83048327 464.486095733 1098 515 1098 c 4
 565.513916919 1098 616.338869018 1088.830487 663.553710938 1069.43457031 c 4
 710.868012311 1049.99823745 754.20202589 1020.02568799 788.041015625 980.85546875 c 4
 821.940929961 941.614319248 845.058079075 894.199604289 857.159179688 844.508789062 c 4
 869.267980388 794.787499795 869.999999999 744.76883431 870 697 c 4
 870 0 l 5
 820 0 l 5
 820 697 l 4
 819.999999999 744.222028086 818.946812717 790.105520385 808.579101562 832.677734375 c 4
 798.20420512 875.280638797 778.403207015 915.527633913 750.205078125 948.168945312 c 4
 721.945433543 980.880959992 685.106771215 1006.52700233 644.5546875 1023.18554688 c 4
 603.903776165 1039.88457506 559.476752571 1048 515 1048 c 4
 470.523234777 1048 426.096232908 1039.88457879 385.4453125 1023.18554688 c 4
 344.893185679 1006.52698463 308.054587433 980.880984274 279.794921875 948.168945312 c 4
 251.596818551 915.527663508 231.795782022 875.280585997 221.420898438 832.677734375 c 4
 211.053188536 790.105525532 210 744.222021161 210 697 c 4
 210 0 l 5
EndSplineSet
Fore
SplineSet
525 1098 m 4xd8
 640 1098 732 1050 790 981 c 4
 870 886 870 775 870 697 c 6
 870 0 l 5
 820 0 l 5
 820 697 l 6
 820 772 820 866 752 946 c 4
 701 1006 618 1048 515 1048 c 4xd8
 412 1048 329 1006 278 946 c 4
 210 866 210 772 210 697 c 6
 210 0 l 5
 160 0 l 5
 160 1082 l 5
 210 1082 l 5xb8
 210 917 l 5
 263 1032 379 1098 525 1098 c 4xd8
EndSplineSet
Layer: 2
EndChar
StartChar: o
Encoding: 111 111 52
GlifName: o
Width: 1020
Flags: W
HStem: -16 50<379.637 640.363> 1048 50<379.637 640.363>
VStem: 125 50<267.954 814.046> 845 50<267.954 814.046>
AnchorPoint: "hook" 820 865 basechar 0
AnchorPoint: "Bottom" 520 0 basechar 0
AnchorPoint: "Top" 520 1082 basechar 0
LayerCount: 3
Back
SplineSet
269.544921875 948.234375 m 4
 223.947265625 897.796875 197.961914062 829.951171875 186.513671875 759.706054688 c 4
 174.98046875 688.936523438 175 615.471679688 175 541 c 4
 175 466.528320312 174.98046875 393.063476562 186.513671875 322.293945312 c 4
 197.961914062 252.047851562 223.947265625 184.203125 269.544921875 133.765625 c 4
 299.142578125 101.026367188 336.833984375 75.330078125 378.16015625 58.7119140625 c 4
 419.608398438 42.044921875 464.7734375 34 510 34 c 4
 555.2265625 34 600.391601562 42.044921875 641.83984375 58.7119140625 c 4
 683.166015625 75.330078125 720.857421875 101.026367188 750.455078125 133.765625 c 4
 796.052734375 184.203125 822.038085938 252.048828125 833.486328125 322.293945312 c 4
 845.01953125 393.063476562 845 466.528320312 845 541 c 4
 845 615.471679688 845.01953125 688.936523438 833.486328125 759.706054688 c 4
 822.038085938 829.952148438 796.052734375 897.796875 750.455078125 948.234375 c 4
 720.857421875 980.973632812 683.166015625 1006.66992188 641.83984375 1023.28808594 c 4
 600.391601562 1039.95507812 555.2265625 1048 510 1048 c 4
 464.7734375 1048 419.608398438 1039.95507812 378.16015625 1023.28808594 c 4
 336.833984375 1006.66992188 299.142578125 980.973632812 269.544921875 948.234375 c 4
232.455078125 981.765625 m 4
 267.463867188 1020.49023438 311.44921875 1050.35351562 359.505859375 1069.67773438 c 4
 407.440429688 1088.953125 458.887695312 1098 510 1098 c 4
 561.112304688 1098 612.559570312 1088.953125 660.494140625 1069.67773438 c 4
 708.55078125 1050.35351562 752.536132812 1020.49023438 787.544921875 981.765625 c 4
 841.770507812 921.784179688 870.33984375 844.416015625 882.834960938 767.748046875 c 4
 895.245117188 691.602539062 895 615.379882812 895 541 c 4
 895 466.620117188 895.245117188 390.397460938 882.834960938 314.251953125 c 4
 870.33984375 237.583984375 841.770507812 160.215820312 787.544921875 100.234375 c 4
 752.536132812 61.509765625 708.55078125 31.646484375 660.494140625 12.322265625 c 4
 612.559570312 -6.953125 561.112304688 -16 510 -16 c 4
 458.887695312 -16 407.440429688 -6.953125 359.505859375 12.322265625 c 4
 311.44921875 31.646484375 267.463867188 61.509765625 232.455078125 100.234375 c 4
 178.229492188 160.215820312 149.66015625 237.583984375 137.165039062 314.251953125 c 4
 124.754882812 390.397460938 125 466.620117188 125 541 c 4
 125 615.379882812 124.754882812 691.602539062 137.165039062 767.748046875 c 4
 149.66015625 844.416015625 178.229492188 921.784179688 232.455078125 981.765625 c 4
EndSplineSet
Fore
SplineSet
510 1048 m 0
 403 1048 319 1006 264 942 c 0
 175 839 175 680 175 541 c 0
 175 402 175 243 264 140 c 0
 319 76 403 34 510 34 c 0
 617 34 701 76 756 140 c 0
 845 243 845 402 845 541 c 0
 845 680 845 839 756 942 c 0
 701 1006 617 1048 510 1048 c 0
510 1098 m 0
 630 1098 729 1049 790 979 c 0
 895 860 895 696 895 541 c 0
 895 386 895 222 790 103 c 0
 729 33 630 -16 510 -16 c 0
 390 -16 291 33 230 103 c 0
 125 222 125 386 125 541 c 0
 125 696 125 860 230 979 c 0
 291 1049 390 1098 510 1098 c 0
EndSplineSet
Layer: 2
EndChar
StartChar: q
Encoding: 113 113 63
GlifName: q
Width: 1115
Flags: W
HStem: -16 134<391.219 689.896> 964 134<391.219 689.896> 1062 20G<805 955>
VStem: 125 150<241.25 840.75> 805 150<-414 115 242.055 839.945 967 1082>
LayerCount: 3
Back
Fore
SplineSet
520 1098 m 0xd8
 644 1098 733 1047 805 967 c 1
 805 1082 l 1
 955 1082 l 1xb8
 955 -414 l 1
 805 -414 l 1
 805 115 l 1
 733 35 644 -16 520 -16 c 0
 380 -16 266 51 205 144 c 0
 133 255 125 374 125 541 c 0
 125 708 133 827 205 938 c 0
 266 1031 380 1098 520 1098 c 0xd8
540 964 m 0xd8
 447 964 377 924 335 866 c 0
 280 790 275 683 275 541 c 0
 275 399 280 292 335 216 c 0
 377 158 447 118 540 118 c 0
 633 118 703 158 745 216 c 0
 800 292 805 399 805 541 c 0
 805 683 800 790 745 866 c 0
 703 924 633 964 540 964 c 0xd8
EndSplineSet
Validated: 1
Layer: 2
EndChar
StartChar: r
Encoding: 114 114 61
GlifName: r
Width: 624
Flags: W
HStem: 0 21G<160 210> 1048 50<380.513 587.236> 1062 20G<160 210>
VStem: 160 50<0 881.421 923 1082>
AnchorPoint: "Bottom" 234 0 basechar 0
AnchorPoint: "Top" 465 1082 basechar 0
LayerCount: 3
Back
SplineSet
210 0 m 5
 160 0 l 5
 160 715 l 4
 160 779.143185721 163.51932016 848.112309339 192.780273438 911.287109375 c 4
 221.885534261 974.125767264 272.684698153 1025.29928171 333.38671875 1057.13964844 c 4
 386.36919645 1084.93084062 445.948686819 1098.15893544 505.067382812 1098 c 4
 520.810850156 1097.95767507 536.450669851 1096.99136102 551.915039062 1095.30175781 c 4
 566.292013293 1093.73096101 580.422506586 1091.56381133 594.323242188 1089.12304688 c 5
 585.676757812 1039.87695312 l 5
 572.498987076 1042.19057288 559.437492584 1044.18231393 546.484375 1045.59765625 c 4
 532.593938341 1047.11541619 518.718506943 1047.96294461 504.932617188 1048 c 4
 453.325360201 1048.13871625 401.686031024 1036.50388603 356.61328125 1012.86132812 c 4
 305.176962458 985.880809928 262.265208015 942.337185502 238.150390625 890.2734375 c 4
 214.191329307 838.545965935 210 777.48587674 210 715 c 4
 210 0 l 5
EndSplineSet
Fore
SplineSet
505 1098 m 4xd0
 537 1098 566 1094 594 1089 c 1
 586 1040 l 1
 561 1044 534 1048 505 1048 c 0xd0
 413 1048 333 1011 285 959 c 0
 210 878 210 789 210 715 c 2
 210 0 l 1
 160 0 l 1
 160 1082 l 1
 210 1082 l 1xb0
 210 923 l 1
 261 1035 372 1098 505 1098 c 4xd0
EndSplineSet
Layer: 2
EndChar
StartChar: s
Encoding: 115 115 47
GlifName: s
Width: 911
VWidth: 0
Flags: W
HStem: -16 50<275.352 578.329> 1048 50<312.422 599.067>
VStem: 120 50<718.173 917.222> 736 50<178.122 380.96>
AnchorPoint: "DoubleTop" -5 0 basechar 0
AnchorPoint: "Apos" -5 0 basechar 0
AnchorPoint: "Center" -5 0 basechar 0
AnchorPoint: "Bottom" 441 0 basechar 0
AnchorPoint: "Top" 441 1082 basechar 0
LayerCount: 3
Back
SplineSet
742.83203125 1023.85644531 m 5
 723.13671875 977.899414062 l 5
 676.605530554 997.840409506 629.715167704 1015.77587018 581.88671875 1028.45703125 c 4
 535.52093504 1040.75046034 488.129659276 1048.09937228 441.079101562 1047.95019531 c 4
 403.584753357 1047.83131454 366.416056411 1042.87932391 331.776367188 1031.484375 c 4
 297.210148852 1020.11377197 265.02296203 1002.00230451 239.075195312 977.739257812 c 4
 195.472978771 936.968304155 169.685451386 876.88735179 170 817.131835938 c 4
 170.213786493 776.518104319 181.991874652 735.78950361 203.608398438 701.52734375 c 4
 225.172019949 667.349316878 256.993372977 639.253620306 293.568359375 620.163085938 c 4
 337.753539571 597.100027256 389.492723023 586.635714439 442.991210938 577.999023438 c 4
 496.697190068 569.328888164 553.609816052 561.103751325 607.8046875 537.997070312 c 4
 658.053215544 516.573137023 703.867939091 482.452188447 736.0859375 436.740234375 c 4
 768.242007238 391.116208643 785.72702895 335.837091631 786 280.122070312 c 4
 786.404926593 197.47393208 748.008154993 116.854682505 685.104492188 63.8779296875 c 4
 616.699903924 6.26793395508 526.582253466 -15.7107540488 441.020507812 -15.9501953125 c 4
 381.373302167 -16.1171175177 322.429506036 -6.56433191743 265.793945312 8.9638671875 c 4
 210.96935279 23.9953263903 158.300215392 44.6258871396 107.296875 67.5615234375 c 5
 127.802734375 113.163085938 l 5
 177.29116318 90.9087946293 227.575858255 71.2876644842 279.014648438 57.1845703125 c 4
 332.171700254 42.6100088868 386.68306835 33.8981344056 440.879882812 34.0498046875 c 4
 518.463904194 34.2669203097 596.512888431 54.63697809 652.895507812 102.122070312 c 4
 704.512169066 145.593353657 736.328618108 212.804360345 736 279.877929688 c 4
 735.77739364 325.313590194 721.333789516 370.879646065 695.216796875 407.935546875 c 4
 669.162150485 444.902859056 630.993861486 473.755303776 588.1953125 492.002929688 c 4
 541.819491368 511.775631049 489.249375954 519.883562142 435.022460938 528.637695312 c 4
 380.587911523 537.425362364 323.168475036 548.310640754 270.431640625 575.836914062 c 4
 226.686306419 598.670438657 188.102978649 632.398353359 161.321289062 674.84765625 c 4
 134.591998641 717.212620041 120.263140095 766.879654527 120 816.868164062 c 4
 119.610866571 890.793010273 150.882468718 963.727393332 204.924804688 1014.26074219 c 4
 236.854714996 1044.1168533 275.448828447 1065.590975 316.153320312 1078.98046875 c 4
 356.784348617 1092.34669299 399.177062443 1097.81783716 440.920898438 1097.95019531 c 4
 493.280969761 1098.11620846 544.9760249 1089.97139998 594.701171875 1076.78710938 c 4
 645.982538607 1063.19029341 695.118700193 1044.30428047 742.83203125 1023.85644531 c 5
EndSplineSet
Fore
SplineSet
442 1098 m 0
 556 1098 655 1060 743 1024 c 1
 723 978 l 1
 641 1012 549 1048 442 1048 c 0
 248 1048 170 922 170 818 c 0
 170 741 210 664 294 620 c 0
 388 571 505 582 608 538 c 0
 716 492 786 396 786 279 c 0
 786 139 675 -16 441 -16 c 0
 313 -16 200 26 107 68 c 1
 128 113 l 1
 218 73 323 34 441 34 c 0
 644 34 736 163 736 279 c 0
 736 384 667 460 589 492 c 0
 487 534 369 523 270 576 c 0
 165 632 120 728 120 818 c 0
 120 949 220 1098 442 1098 c 0
EndSplineSet
Layer: 2
EndChar
StartChar: v
Encoding: 118 118 45
GlifName: v
Width: 990
Flags: W
HStem: 0 21G<416.29 573.71> 1062 20G<60 223.247 766.753 930>
AnchorPoint: "Top" 495 1082 basechar 0
LayerCount: 3
Back
Fore
SplineSet
423 0 m 1
 60 1082 l 1
 217 1082 l 1
 495 192 l 1
 773 1082 l 1
 930 1082 l 1
 567 0 l 1
 423 0 l 1
EndSplineSet
Validated: 1
Layer: 2
EndChar
StartChar: w
Encoding: 119 119 44
GlifName: w
Width: 1326
Flags: W
HStem: 0 21G<324.213 378.876 947.124 1001.79> 1062 20G<70 125.755 636.122 689.878 1200.24 1256>
AnchorPoint: "Top" 663 1082 basechar 0
LayerCount: 3
Back
SplineSet
70 1082 m 5
 121 1082 l 5
 354 112 l 5
 642 1082 l 5
 684 1082 l 5
 972 112 l 5
 1205 1082 l 5
 1256 1082 l 5
 997 0 l 5
 953 0 l 5
 663 977 l 5
 373 0 l 5
 329 0 l 5
 70 1082 l 5
EndSplineSet
Fore
SplineSet
70 1082 m 1
 121 1082 l 1
 354 102 l 1
 642 1082 l 1
 684 1082 l 1
 972 102 l 5
 1205 1082 l 1
 1256 1082 l 1
 997 0 l 1
 953 0 l 1
 663 987 l 1
 373 0 l 1
 329 0 l 1
 70 1082 l 1
EndSplineSet
Validated: 1
Layer: 2
EndChar
StartChar: x
Encoding: 120 120 68
GlifName: x
Width: 950
VWidth: 0
Flags: W
HStem: 0 21G<70 250.211 699.789 880> 1062 20G<75 255.186 694.814 875>
LayerCount: 3
Back
Fore
SplineSet
880 0 m 1
 711 0 l 1
 475 421 l 1
 239 0 l 1
 70 0 l 1
 390 545 l 1
 75 1082 l 1
 244 1082 l 5
 475 669 l 1
 706 1082 l 1
 875 1082 l 1
 560 545 l 1
 880 0 l 1
EndSplineSet
Validated: 1
Layer: 2
EndChar
StartChar: braceleft
Encoding: 123 123 75
GlifName: braceleft
Width: 703
Flags: W
VStem: 271 140<-227.307 386.359 695.641 1309.31>
LayerCount: 3
Back
Fore
SplineSet
264 541 m 1
 360 462 421 346 421 174 c 0
 421 102 411 35 411 -27 c 0
 411 -198 482 -297 573 -346 c 1
 530 -444 l 1
 370 -376 271 -241 271 -27 c 0
 271 45 281 112 281 174 c 0
 281 336 216 437 110 485 c 1
 110 597 l 1
 216 645 281 746 281 908 c 0
 281 970 271 1037 271 1109 c 0
 271 1323 370 1458 530 1526 c 1
 573 1428 l 1
 482 1379 411 1280 411 1109 c 0
 411 1047 421 980 421 908 c 0
 421 736 360 620 264 541 c 1
EndSplineSet
Validated: 1
Layer: 2
Substitution2: "'case' subtable" braceleft.case
EndChar
StartChar: cent
Encoding: 162 162 339
GlifName: cent
Width: 1019
VWidth: 0
Flags: W
HStem: -14 135<381.748 505 605 744.289> 961 135<380.388 505 605 740.352>
VStem: 120 140<244.934 838.936> 505 100<-220 -8.94876 121 961 1090.91 1282>
LayerCount: 3
Back
Fore
SplineSet
505 1282 m 1
 605 1282 l 1
 605 1096 l 1
 736 1084 838 1028 915 963 c 1
 831 857 l 1
 771 906 699 949 605 961 c 1
 605 121 l 1
 707 133 787 182 843 244 c 1
 943 152 l 1
 866 66 751 -1 605 -14 c 1
 605 -220 l 1
 505 -220 l 1
 505 -14 l 1
 364 -1 251 67 190 164 c 0
 120 276 120 397 120 541 c 0
 120 692 120 808 189 917 c 0
 251 1015 361 1083 505 1096 c 1
 505 1282 l 1
505 121 m 1
 505 961 l 1
 409 950 347 905 313 854 c 0
 260 775 260 683 260 541 c 0
 260 405 260 315 310 234 c 0
 348 173 417 132 505 121 c 1
EndSplineSet
Validated: 1
Layer: 2
EndChar
StartChar: sterling
Encoding: 163 163 113
GlifName: sterling
Width: 1014
VWidth: 0
Flags: W
HStem: 0 140<317 908> 598 124<120 241 414 804> 1295 140<411.133 701.756>
VStem: 173 156<833.931 1211.14> 260 156<292.602 598>
LayerCount: 3
Back
Fore
SplineSet
551 1435 m 0xf0
 677 1435 781 1383 848 1322 c 1
 750 1214 l 1
 700 1260 633 1295 551 1295 c 0
 419 1295 329 1207 329 1064 c 0xf0
 329 959 374 855 399 722 c 1
 804 722 l 1
 804 598 l 1
 414 598 l 1
 416 581 416 564 416 546 c 0
 416 405 380 262 317 140 c 1
 908 140 l 1
 908 0 l 1
 120 0 l 1
 120 107 l 1
 210 232 260 390 260 546 c 0xe8
 260 564 260 581 258 598 c 1
 120 598 l 1
 120 722 l 1
 241 722 l 1
 215 843 173 936 173 1064 c 0
 173 1291 342 1435 551 1435 c 0xf0
EndSplineSet
Validated: 1
Layer: 2
EndChar
StartChar: currency
Encoding: 164 164 405
GlifName: currency
Width: 1170
VWidth: 0
Flags: W
HStem: 184 134<447.118 722.882> 764 134<447.118 722.882>
VStem: 220 150<396.333 685.667> 800 150<396.333 685.667>
LayerCount: 3
Back
Fore
SplineSet
585 764 m 0
 461 764 370 683 370 541 c 0
 370 399 461 318 585 318 c 0
 709 318 800 399 800 541 c 0
 800 683 709 764 585 764 c 0
236 91 m 1
 135 192 l 1
 280 337 l 1
 241 394 220 465 220 541 c 0
 220 617 241 688 280 745 c 1
 135 890 l 1
 236 991 l 1
 383 844 l 1
 439 878 508 898 585 898 c 0
 662 898 731 878 787 844 c 1
 934 991 l 1
 1035 890 l 1
 890 745 l 1
 929 688 950 617 950 541 c 0
 950 465 929 394 890 337 c 1
 1035 192 l 1
 934 91 l 1
 787 238 l 1
 731 204 662 184 585 184 c 0
 508 184 439 204 383 238 c 1
 236 91 l 1
EndSplineSet
Validated: 1
Layer: 2
EndChar
StartChar: yen
Encoding: 165 165 340
GlifName: yen
Width: 1162
VWidth: 0
Flags: W
HStem: 0 21G<503 659> 327 124<200 503 659 962> 621 124<200 394 768 962> 1396 20G<80 257.925 904.075 1082>
VStem: 503 156<0 327 451 526>
LayerCount: 3
Back
Fore
SplineSet
80 1416 m 1
 249 1416 l 1
 581 672 l 1
 913 1416 l 1
 1082 1416 l 1
 768 745 l 1
 962 745 l 1
 962 621 l 1
 707 621 l 1
 659 526 l 1
 659 451 l 1
 962 451 l 1
 962 327 l 1
 659 327 l 1
 659 0 l 1
 503 0 l 1
 503 327 l 1
 200 327 l 1
 200 451 l 1
 503 451 l 1
 503 526 l 1
 455 621 l 1
 200 621 l 1
 200 745 l 1
 394 745 l 1
 80 1416 l 1
EndSplineSet
Validated: 1
Layer: 2
EndChar
StartChar: brokenbar
Encoding: 166 166 341
GlifName: brokenbar
Width: 492
VWidth: 0
Flags: W
VStem: 176 140<-456 394 698 1538>
LayerCount: 3
Back
Fore
SplineSet
176 1538 m 1
 316 1538 l 1
 316 698 l 1
 176 698 l 1
 176 1538 l 1
176 394 m 1
 316 394 l 1
 316 -456 l 1
 176 -456 l 1
 176 394 l 1
EndSplineSet
Validated: 1
Layer: 2
EndChar
StartChar: dieresis
Encoding: 168 168 130
GlifName: dieresis
Width: 810
VWidth: 0
Flags: W
HStem: 1247 188<132.891 295.109 514.891 677.109>
VStem: 120 188<1259.89 1422.11> 502 188<1259.89 1422.11>
AnchorPoint: "Top" 405 1082 mark 0
LayerCount: 3
Back
Fore
SplineSet
596 1435 m 0
 651 1435 690 1396 690 1341 c 0
 690 1286 651 1247 596 1247 c 0
 541 1247 502 1286 502 1341 c 0
 502 1396 541 1435 596 1435 c 0
214 1435 m 0
 269 1435 308 1396 308 1341 c 0
 308 1286 269 1247 214 1247 c 0
 159 1247 120 1286 120 1341 c 0
 120 1396 159 1435 214 1435 c 0
EndSplineSet
Validated: 1
Layer: 2
EndChar
StartChar: guillemotleft
Encoding: 171 171 128
GlifName: guillemotleft
Width: 942
Flags: W
LayerCount: 3
Back
Fore
SplineSet
704 939 m 1
 822 867 l 1
 612 539 l 1
 822 211 l 1
 704 139 l 1
 460 539 l 1
 704 939 l 1
372 955 m 1
 490 883 l 1
 272 539 l 1
 490 195 l 1
 372 123 l 1
 120 539 l 1
 372 955 l 1
EndSplineSet
Validated: 1
Layer: 2
EndChar
StartChar: registered
Encoding: 174 174 74
GlifName: registered
Width: 1564
VWidth: 0
Flags: W
HStem: -32 100<521.377 1042.62> 579 134<658 794> 1026 134<658 895.165> 1348 100<521.377 1042.62>
VStem: 136 112<342.459 1073.54> 508 150<258 579 713 1026> 936 150<753.33 985.589> 1316 112<342.459 1073.54>
LayerCount: 3
Back
Fore
SplineSet
782 1448 m 0
 1027 1448 1209 1370 1315 1223 c 0
 1427 1068 1428 860 1428 708 c 0
 1428 556 1427 348 1315 193 c 0
 1209 46 1027 -32 782 -32 c 0
 537 -32 355 46 249 193 c 0
 137 348 136 556 136 708 c 0
 136 860 137 1068 249 1223 c 0
 355 1370 537 1448 782 1448 c 0
782 1348 m 0
 576 1348 431 1288 343 1169 c 0
 252 1047 248 856 248 708 c 0
 248 560 252 369 343 247 c 0
 431 128 576 68 782 68 c 0
 988 68 1133 128 1221 247 c 0
 1312 369 1316 560 1316 708 c 0
 1316 856 1312 1047 1221 1169 c 0
 1133 1288 988 1348 782 1348 c 0
658 713 m 1
 696 713 l 2
 783 713 836 713 879 743 c 0
 914 768 936 815 936 869 c 0
 936 924 914 971 879 996 c 0
 841 1023 795 1026 696 1026 c 2
 658 1026 l 1
 658 713 l 1
508 1160 m 1
 696 1160 l 2
 797 1160 887 1160 973 1100 c 0
 1041 1052 1086 970 1086 869 c 0
 1086 760 1032 662 935 618 c 1
 1103 258 l 1
 941 258 l 1
 794 579 l 1
 658 579 l 1
 658 258 l 1
 508 258 l 1
 508 1160 l 1
EndSplineSet
Validated: 1
Layer: 2
EndChar
StartChar: degree
Encoding: 176 176 150
GlifName: degree
Width: 692
VWidth: 0
Flags: W
HStem: 993 118<259.922 432.078> 1393 118<259.922 432.078>
VStem: 100 132<1135.59 1368.41> 460 132<1135.59 1368.41>
LayerCount: 3
Back
Fore
SplineSet
346 1393 m 0
 286 1393 232 1350 232 1252 c 0
 232 1154 286 1111 346 1111 c 0
 406 1111 460 1154 460 1252 c 0
 460 1350 406 1393 346 1393 c 0
346 1511 m 0
 498 1511 592 1390 592 1252 c 0
 592 1114 498 993 346 993 c 0
 194 993 100 1114 100 1252 c 0
 100 1390 194 1511 346 1511 c 0
EndSplineSet
Validated: 1
Layer: 2
EndChar
StartChar: plusminus
Encoding: 177 177 104
GlifName: plusminus
Width: 1100
Flags: W
HStem: 184 134<170 940> 664 134<160 475 625 940>
VStem: 475 150<421 664 798 1031>
LayerCount: 3
Back
Fore
SplineSet
170 184 m 1
 170 318 l 1
 940 318 l 1
 940 184 l 1
 170 184 l 1
160 664 m 1
 160 798 l 1
 475 798 l 1
 475 1031 l 1
 625 1031 l 1
 625 798 l 1
 940 798 l 1
 940 664 l 1
 625 664 l 1
 625 421 l 1
 475 421 l 1
 475 664 l 1
 160 664 l 1
EndSplineSet
Validated: 1
Layer: 2
EndChar
StartChar: acute
Encoding: 180 180 168
GlifName: acute
Width: 563
Flags: W
HStem: 1222 274<274 278>
VStem: 120 323
AnchorPoint: "Top" 213 1082 mark 0
LayerCount: 3
Back
Fore
SplineSet
443 1496 m 1
 278 1222 l 1
 120 1222 l 1
 274 1496 l 1
 443 1496 l 1
EndSplineSet
Validated: 1
Layer: 2
EndChar
StartChar: mu
Encoding: 181 181 122
GlifName: mu
Width: 1070
VWidth: 0
Flags: W
HStem: -16 134<407.919 706.466> 1062 20G<160 310 800 950>
VStem: 160 150<-414 112 217.927 1082> 800 150<214.423 1082>
AnchorPoint: "DoubleTop" 30 0 basechar 0
AnchorPoint: "Apos" 30 0 basechar 0
AnchorPoint: "Center" 0 0 basechar 0
AnchorPoint: "Bottom" 522 0 basechar 0
AnchorPoint: "Top" 522 975 basechar 0
LayerCount: 3
Back
Fore
SplineSet
160 1082 m 1
 310 1082 l 1
 310 496 l 2
 310 360 310 278 361 208 c 0
 400 154 468 118 555 118 c 0
 643 118 713 153 752 208 c 0
 800 276 800 360 800 496 c 2
 800 1082 l 1
 950 1082 l 1
 950 496 l 2
 950 351 950 238 881 134 c 0
 822 45 713 -16 575 -16 c 0
 468 -16 378 29 310 112 c 1
 310 -414 l 1
 160 -414 l 1
 160 1082 l 1
EndSplineSet
Validated: 1
Layer: 2
EndChar
StartChar: Aring
Encoding: 197 197 151
GlifName: A_ring
Width: 1190
VWidth: 0
Flags: W
HStem: 0 21G<40 209.491 980.509 1150> 342 140<360 830> 1610 106<517.491 672.509>
VStem: 386 118<1427.37 1598.06> 686 118<1427.37 1598.06>
LayerCount: 3
Back
Fore
SplineSet
595 1716 m 0
 720 1716 804 1625 804 1513 c 0
 804 1436 764 1368 698 1334 c 1
 1150 0 l 1
 987 0 l 1
 876 342 l 1
 314 342 l 1
 203 0 l 1
 40 0 l 1
 492 1334 l 1
 426 1368 386 1436 386 1513 c 0
 386 1625 470 1716 595 1716 c 0
595 1610 m 0
 543 1610 504 1578 504 1513 c 0
 504 1448 543 1416 595 1416 c 0
 647 1416 686 1448 686 1513 c 0
 686 1578 647 1610 595 1610 c 0
830 482 m 1
 595 1205 l 1
 360 482 l 1
 830 482 l 1
EndSplineSet
Validated: 1
Layer: 2
EndChar
StartChar: Eacute
Encoding: 201 201 174
GlifName: E_acute
Width: 1100
VWidth: 0
Flags: W
HStem: 0 140<336 960> 652 140<336 870> 1276 140<336 960>
VStem: 180 156<140 652 792 1276>
LayerCount: 3
Back
Fore
SplineSet
789 1830 m 1
 624 1556 l 1
 466 1556 l 1
 620 1830 l 1
 789 1830 l 1
EndSplineSet
Refer: 18 69 N 1 0 0 1 0 0 3
Validated: 1
Layer: 2
EndChar
StartChar: Iacute
Encoding: 205 205 176
GlifName: I_acute
Width: 516
VWidth: 0
Flags: W
HStem: 0 21G<180 336> 1396 20G<180 336>
VStem: 147 323 180 156<0 1416>
LayerCount: 3
Back
Fore
SplineSet
470 1830 m 1xe0
 305 1556 l 1
 147 1556 l 1
 301 1830 l 1
 470 1830 l 1xe0
EndSplineSet
Refer: 21 73 N 1 0 0 1 0 0 3
Validated: 1
Layer: 2
EndChar
StartChar: multiply
Encoding: 215 215 346
GlifName: multiply
Width: 1010
Flags: W
LayerCount: 3
Back
Fore
SplineSet
860 279 m 1
 767 186 l 1
 505 448 l 1
 243 186 l 1
 150 279 l 1
 412 541 l 1
 150 803 l 1
 243 896 l 1
 505 634 l 1
 767 896 l 1
 860 803 l 1
 598 541 l 1
 860 279 l 1
EndSplineSet
Validated: 1
Layer: 2
EndChar
StartChar: Ugrave
Encoding: 217 217 166
GlifName: U_grave
Width: 1236
VWidth: 0
Flags: W
HStem: -19 140<454.716 781.284> 1396 20G<160 316 920 1076>
VStem: 160 156<260.535 1416> 920 156<260.535 1416>
LayerCount: 3
Back
Fore
SplineSet
404 1830 m 1
 573 1830 l 1
 727 1556 l 1
 569 1556 l 1
 404 1830 l 1
EndSplineSet
Refer: 24 85 N 1 0 0 1 0 0 3
Validated: 1
Layer: 2
EndChar
StartChar: Thorn
Encoding: 222 222 347
GlifName: T_horn
Width: 1146
Flags: W
HStem: 0 21G<180 336> 306 140<336 733.654> 1066 140<336 733.654> 1396 20G<180 336>
VStem: 180 156<0 306 446 1066 1206 1416> 870 156<584.186 927.814>
LayerCount: 3
Back
Fore
SplineSet
180 1416 m 1
 336 1416 l 1
 336 1206 l 1
 482 1206 l 2
 565 1206 627 1206 695 1190 c 0
 907 1140 1026 959 1026 756 c 0
 1026 553 907 372 695 322 c 0
 627 306 565 306 482 306 c 2
 336 306 l 1
 336 0 l 1
 180 0 l 1
 180 1416 l 1
336 1066 m 1
 336 446 l 1
 482 446 l 2
 568 446 629 446 687 467 c 0
 814 513 870 638 870 756 c 0
 870 874 814 999 687 1045 c 0
 629 1066 568 1066 482 1066 c 2
 336 1066 l 1
EndSplineSet
Validated: 1
Layer: 2
EndChar
StartChar: eacute
Encoding: 233 233 172
GlifName: eacute
Width: 975
VWidth: 0
Flags: HW
HStem: -16 134<347.746 728.244> 509 124<236 745> 964 134<345.323 633.125>
VStem: 85 150<236.828 509 633 842.344> 745 150<633 846.285>
LayerCount: 3
Back
Fore
SplineSet
702 1496 m 1
 537 1222 l 1
 379 1222 l 1
 533 1496 l 1
 702 1496 l 1
EndSplineSet
Refer: 56 101 N 1 0 0 1 0 0 3
Layer: 2
EndChar
StartChar: iacute
Encoding: 237 237 171
GlifName: iacute
Width: 470
VWidth: 0
Flags: W
HStem: 0 21G<160 310> 1062 20G<160 310>
VStem: 124 323 160 150<0 1082>
LayerCount: 3
Back
Fore
SplineSet
447 1496 m 1xe0
 282 1222 l 1
 124 1222 l 1
 278 1496 l 1
 447 1496 l 1xe0
EndSplineSet
Refer: 155 305 N 1 0 0 1 0 0 3
Validated: 1
Layer: 2
EndChar
StartChar: ograve
Encoding: 242 242 161
GlifName: ograve
Width: 1020
VWidth: 0
Flags: HW
HStem: -16 134<360.875 679.125> 964 134<360.875 679.125>
VStem: 95 150<243.661 838.339> 795 150<243.661 838.339>
LayerCount: 3
Back
Fore
SplineSet
306 1496 m 1
 475 1496 l 1
 629 1222 l 1
 471 1222 l 1
 306 1496 l 1
EndSplineSet
Refer: 52 111 N 1 0 0 1 0 0 3
Layer: 2
EndChar
StartChar: oacute
Encoding: 243 243 169
GlifName: oacute
Width: 1020
VWidth: 0
Flags: HW
HStem: -16 134<360.875 679.125> 964 134<360.875 679.125>
VStem: 95 150<243.661 838.339> 795 150<243.661 838.339>
LayerCount: 3
Back
Fore
SplineSet
732 1496 m 1
 567 1222 l 1
 409 1222 l 1
 563 1496 l 1
 732 1496 l 1
EndSplineSet
Refer: 52 111 N 1 0 0 1 0 0 3
Layer: 2
EndChar
StartChar: divide
Encoding: 247 247 88
GlifName: divide
Width: 1140
Flags: W
HStem: 136 188<488.891 651.109> 474 134<160 980> 758 188<488.891 651.109>
VStem: 476 188<148.891 311.109 770.891 933.109>
CounterMasks: 1 e0
LayerCount: 3
Back
Fore
SplineSet
570 324 m 0
 625 324 664 285 664 230 c 0
 664 175 625 136 570 136 c 0
 515 136 476 175 476 230 c 0
 476 285 515 324 570 324 c 0
160 608 m 1
 980 608 l 1
 980 474 l 1
 160 474 l 1
 160 608 l 1
570 946 m 0
 625 946 664 907 664 852 c 0
 664 797 625 758 570 758 c 0
 515 758 476 797 476 852 c 0
 476 907 515 946 570 946 c 0
EndSplineSet
Validated: 1
Layer: 2
EndChar
StartChar: ugrave
Encoding: 249 249 162
GlifName: ugrave
Width: 1100
VWidth: 0
Flags: HW
HStem: -16 134<398.305 691.695> 1062 20G<150 300 790 940>
VStem: 150 150<221.022 1082> 790 150<221.022 1082>
LayerCount: 3
Back
Fore
SplineSet
331 1496 m 1
 500 1496 l 1
 654 1222 l 1
 496 1222 l 1
 331 1496 l 1
EndSplineSet
Refer: 65 117 N 1 0 0 1 0 0 3
Validated: 1
Layer: 2
Substitution2: "'ss04' subtable" ugrave.alt
EndChar
StartChar: uacute
Encoding: 250 250 158
GlifName: uacute
Width: 1100
VWidth: 0
Flags: HW
HStem: -16 134<398.305 691.695> 1062 20G<150 300 790 940>
VStem: 150 150<221.022 1082> 790 150<221.022 1082>
LayerCount: 3
Back
Fore
SplineSet
757 1496 m 1
 592 1222 l 1
 434 1222 l 1
 588 1496 l 1
 757 1496 l 1
EndSplineSet
Refer: 65 117 N 1 0 0 1 0 0 3
Validated: 1
Layer: 2
Substitution2: "'ss04' subtable" uacute.alt
EndChar
StartChar: Amacron
Encoding: 256 256 204
GlifName: A_macron
Width: 1190
VWidth: 0
Flags: W
HStem: 0 21G<40 209.491 980.509 1150> 342 140<360 830> 1396 20G<513.22 676.78> 1586 134<310 880>
LayerCount: 3
Back
Fore
SplineSet
310 1720 m 1
 880 1720 l 1
 880 1586 l 1
 310 1586 l 1
 310 1720 l 1
EndSplineSet
Refer: 13 65 N 1 0 0 1 0 0 3
Validated: 1
Layer: 2
EndChar
StartChar: dcroat
Encoding: 273 273 356
GlifName: dcroat
Width: 1150
Flags: W
HStem: -16 134<391.219 689.896> 0 21G<805 955> 964 134<391.219 689.896> 1236 124<558 805 955 1090>
VStem: 125 150<241.25 840.75> 805 150<0 115 242.055 839.945 967 1236 1360 1496>
LayerCount: 3
Back
Fore
SplineSet
1090 1360 m 1xbc
 1090 1236 l 1
 955 1236 l 1
 955 0 l 1
 805 0 l 1x7c
 805 115 l 1
 733 35 644 -16 520 -16 c 0
 380 -16 266 51 205 144 c 0
 133 255 125 374 125 541 c 0
 125 708 133 827 205 938 c 0
 266 1031 380 1098 520 1098 c 0
 644 1098 733 1047 805 967 c 1
 805 1236 l 1
 558 1236 l 1
 558 1360 l 1
 805 1360 l 1
 805 1496 l 1
 955 1496 l 1
 955 1360 l 1
 1090 1360 l 1xbc
540 964 m 0
 447 964 377 924 335 866 c 0
 280 790 275 683 275 541 c 0
 275 399 280 292 335 216 c 0
 377 158 447 118 540 118 c 0xbc
 633 118 703 158 745 216 c 0
 800 292 805 399 805 541 c 0
 805 683 800 790 745 866 c 0
 703 924 633 964 540 964 c 0
EndSplineSet
Validated: 1
Layer: 2
EndChar
StartChar: Emacron
Encoding: 274 274 218
GlifName: E_macron
Width: 1100
VWidth: 0
Flags: W
HStem: 0 140<336 960> 652 140<336 870> 1276 140<336 960> 1586 134<292 862>
VStem: 180 156<140 652 792 1276>
LayerCount: 3
Back
Fore
SplineSet
292 1720 m 1
 862 1720 l 1
 862 1586 l 1
 292 1586 l 1
 292 1720 l 1
EndSplineSet
Refer: 18 69 N 1 0 0 1 0 0 3
Validated: 1
Layer: 2
EndChar
StartChar: emacron
Encoding: 275 275 219
GlifName: emacron
Width: 975
VWidth: 0
Flags: HW
HStem: -16 134<347.746 728.244> 509 124<236 745> 964 134<345.323 633.125> 1252 134<205 775>
VStem: 85 150<236.828 509 633 842.344> 745 150<633 846.285>
LayerCount: 3
Back
Fore
SplineSet
205 1386 m 1
 775 1386 l 1
 775 1252 l 1
 205 1252 l 1
 205 1386 l 1
EndSplineSet
Refer: 56 101 N 1 0 0 1 0 0 3
Layer: 2
EndChar
StartChar: hbar
Encoding: 295 295 359
GlifName: hbar
Width: 1130
Flags: W
HStem: 0 21G<200 350 840 990> 964 134<452.948 742.273> 1236 124<60 200 350 592>
VStem: 200 150<0 864.511 968 1236 1360 1496> 840 150<0 864.191>
LayerCount: 3
Back
Fore
SplineSet
625 1098 m 0
 747 1098 846 1043 907 966 c 0
 990 862 990 741 990 625 c 2
 990 0 l 1
 840 0 l 1
 840 615 l 2
 840 735 840 816 782 884 c 0
 742 931 677 964 595 964 c 0
 513 964 448 931 408 884 c 0
 350 816 350 735 350 615 c 2
 350 0 l 1
 200 0 l 1
 200 1236 l 1
 60 1236 l 1
 60 1360 l 1
 200 1360 l 1
 200 1496 l 1
 350 1496 l 1
 350 1360 l 1
 592 1360 l 1
 592 1236 l 1
 350 1236 l 1
 350 968 l 1
 422 1047 506 1098 625 1098 c 0
EndSplineSet
Validated: 1
Layer: 2
EndChar
StartChar: Imacron
Encoding: 298 298 237
GlifName: I_macron
Width: 516
VWidth: 0
Flags: W
HStem: 0 21G<180 336> 1396 20G<180 336> 1586 134<-27 543>
VStem: -27 570<1586 1720> 180 156<0 1416>
LayerCount: 3
Back
Fore
SplineSet
-27 1720 m 1xf0
 543 1720 l 1
 543 1586 l 1
 -27 1586 l 1
 -27 1720 l 1xf0
EndSplineSet
Refer: 21 73 N 1 0 0 1 0 0 3
Validated: 1
Layer: 2
EndChar
StartChar: imacron
Encoding: 299 299 238
GlifName: imacron
Width: 470
VWidth: 0
Flags: W
HStem: 0 21G<160 310> 1062 20G<160 310> 1252 134<-50 520>
VStem: -50 570<1252 1386> 160 150<0 1082>
LayerCount: 3
Back
Fore
SplineSet
-50 1386 m 1xf0
 520 1386 l 1
 520 1252 l 1
 -50 1252 l 1
 -50 1386 l 1xf0
EndSplineSet
Refer: 155 305 N 1 0 0 1 0 0 3
Validated: 1
Layer: 2
EndChar
StartChar: dotlessi
Encoding: 305 305 155
GlifName: dotlessi
Width: 470
VWidth: 0
Flags: W
HStem: 0 21G<160 310> 1062 20G<160 310>
VStem: 160 150<0 1082>
AnchorPoint: "Center" 6 0 basechar 0
AnchorPoint: "Apos" 6 0 basechar 0
AnchorPoint: "DoubleTop" 6 0 basechar 0
AnchorPoint: "Bottom" 235 0 basechar 0
AnchorPoint: "Top" 235 1082 basechar 0
LayerCount: 3
Back
Fore
SplineSet
310 0 m 5
 160 0 l 5
 160 1082 l 5
 310 1082 l 5
 310 0 l 5
EndSplineSet
Validated: 1
Layer: 2
EndChar
StartChar: lslash
Encoding: 322 322 363
GlifName: lslash
Width: 696
VWidth: 0
Flags: W
HStem: -16 134<434.125 521.64>
VStem: 278 150<132.663 640 899 1496>
LayerCount: 3
Back
Fore
SplineSet
137 542 m 1
 65 646 l 1
 278 794 l 1
 278 1496 l 1
 428 1496 l 1
 428 899 l 1
 559 990 l 1
 631 886 l 1
 428 745 l 1
 428 191 l 2
 428 169 428 146 439 132 c 0
 447 122 458 118 474 118 c 0
 488 118 504 120 520 124 c 1
 544 -4 l 1
 517 -12 487 -16 452 -16 c 0
 396 -16 348 11 316 50 c 0
 278 96 278 158 278 191 c 2
 278 640 l 1
 137 542 l 1
EndSplineSet
Validated: 1
Layer: 2
Substitution2: "'ss03' subtable" lslash.alt
EndChar
StartChar: Nacute
Encoding: 323 323 254
GlifName: N_acute
Width: 1294
VWidth: 0
Flags: W
HStem: 0 21G<180 336 946.067 1114> 1396 20G<180 347.933 958 1114>
VStem: 180 156<0 1136> 958 156<280 1416>
LayerCount: 3
Back
Fore
SplineSet
859 1830 m 1
 694 1556 l 1
 536 1556 l 1
 690 1830 l 1
 859 1830 l 1
EndSplineSet
Refer: 33 78 N 1 0 0 1 0 0 3
Validated: 1
Layer: 2
EndChar
StartChar: nacute
Encoding: 324 324 255
GlifName: nacute
Width: 1020
VWidth: 0
Flags: HW
HStem: 0 21G<160 310 800 950> 964 134<412.928 702.26> 1062 20G<160 310>
VStem: 160 150<0 864.607 968 1082> 800 150<0 863.391>
LayerCount: 3
Back
Fore
SplineSet
787 1496 m 1x98
 622 1222 l 1
 464 1222 l 1
 618 1496 l 1
 787 1496 l 1x98
EndSplineSet
Refer: 57 110 N 1 0 0 1 0 0 3
Layer: 2
EndChar
StartChar: Eng
Encoding: 330 330 365
GlifName: E_ng
Width: 1286
VWidth: 0
Flags: W
HStem: -433 140<773.587 938.767> 0 21G<176 332> 1396 20G<176 343.933 954 1110>
VStem: 176 156<0 1136> 954 156<-253.824 -2 280 1416>
LayerCount: 3
Back
Fore
SplineSet
954 1416 m 1
 1110 1416 l 1
 1110 -121 l 2
 1110 -223 1105 -268 1076 -319 c 0
 1035 -391 958 -433 857 -433 c 0
 817 -433 774 -425 733 -408 c 1
 784 -277 l 1
 807 -287 834 -293 860 -293 c 0
 893 -293 922 -281 938 -255 c 0
 953 -230 954 -199 954 -121 c 2
 954 -2 l 1
 332 1136 l 1
 332 0 l 1
 176 0 l 1
 176 1416 l 1
 333 1416 l 1
 954 280 l 1
 954 1416 l 1
EndSplineSet
Validated: 1
Layer: 2
EndChar
StartChar: omacron
Encoding: 333 333 261
GlifName: omacron
Width: 1020
VWidth: 0
Flags: HW
HStem: -16 134<380.875 699.125> 964 134<380.875 699.125> 1252 134<275 845>
VStem: 115 150<243.661 838.339> 815 150<243.661 838.339>
LayerCount: 3
Back
Fore
SplineSet
275 1386 m 1
 845 1386 l 1
 845 1252 l 1
 275 1252 l 1
 275 1386 l 1
EndSplineSet
Refer: 52 111 N 1 0 0 1 20 0 3
Layer: 2
EndChar
StartChar: oe
Encoding: 339 339 101
GlifName: oe
Width: 1715
Flags: W
HStem: -16 134<392.013 688.063 1064.22 1432.09> 509 124<956 1445> 964 134<392.013 688.664 1062.88 1336.59>
VStem: 125 150<241.383 840.617> 805 150<242.926 509 633 839.787> 1445 150<633 847.41>
LayerCount: 3
Back
Fore
SplineSet
956 633 m 1
 1445 633 l 1
 1445 719 1430 808 1391 864 c 0
 1350 923 1286 964 1198 964 c 0
 1108 964 1044 918 1008 863 c 0
 969 804 957 721 956 633 c 1
882 913 m 1
 936 1026 1053 1098 1198 1098 c 0
 1349 1098 1468 1018 1528 920 c 0
 1586 825 1595 727 1595 579 c 2
 1595 509 l 1
 955 509 l 1
 955 394 960 297 1007 221 c 0
 1047 157 1119 118 1220 118 c 0
 1327 118 1430 159 1497 191 c 1
 1556 68 l 1
 1471 28 1351 -16 1220 -16 c 0
 1062 -16 945 49 880 168 c 1
 811 60 697 -16 540 -16 c 0
 393 -16 274 51 209 144 c 0
 125 263 125 399 125 541 c 0
 125 683 125 819 209 938 c 0
 274 1031 393 1098 540 1098 c 0
 699 1098 812 1023 882 913 c 1
540 964 m 0
 447 964 376 924 335 866 c 0
 275 782 275 662 275 541 c 0
 275 420 275 300 335 216 c 0
 376 158 447 118 540 118 c 0
 633 118 704 158 745 216 c 0
 805 300 805 420 805 541 c 0
 805 662 805 782 745 866 c 0
 704 924 633 964 540 964 c 0
EndSplineSet
Validated: 1
Layer: 2
EndChar
StartChar: Racute
Encoding: 340 340 266
GlifName: R_acute
Width: 1151
VWidth: 0
Flags: W
HStem: 0 21G<180 336 872.863 1051> 556 140<336 628> 1276 140<336 748.14>
VStem: 180 156<0 556 696 1276> 870 156<821.173 1153.72>
LayerCount: 3
Back
Fore
SplineSet
768 1830 m 1
 603 1556 l 1
 445 1556 l 1
 599 1830 l 1
 768 1830 l 1
EndSplineSet
Refer: 32 82 N 1 0 0 1 0 0 3
Validated: 1
Layer: 2
EndChar
StartChar: sacute
Encoding: 347 347 273
GlifName: sacute
Width: 911
VWidth: 0
Flags: HW
HStem: -16 134<215.497 599.49> 964 134<293.531 655.475>
VStem: 80 150<688.385 902.957> 676 150<191.009 411.925>
LayerCount: 3
Back
Fore
SplineSet
653 1496 m 1
 488 1222 l 1
 330 1222 l 1
 484 1496 l 1
 653 1496 l 1
EndSplineSet
Refer: 47 115 N 1 0 0 1 0 0 3
Layer: 2
EndChar
StartChar: Umacron
Encoding: 362 362 286
GlifName: U_macron
Width: 1236
VWidth: 0
Flags: W
HStem: -19 140<474.716 801.284> 1396 20G<180 336 940 1096> 1586 134<373 943>
VStem: 180 156<260.535 1416> 940 156<260.535 1416>
LayerCount: 3
Back
Fore
SplineSet
373 1720 m 1
 943 1720 l 1
 943 1586 l 1
 373 1586 l 1
 373 1720 l 1
EndSplineSet
Refer: 24 85 N 1 0 0 1 20 0 3
Validated: 1
Layer: 2
EndChar
StartChar: umacron
Encoding: 363 363 287
GlifName: umacron
Width: 1100
VWidth: 0
Flags: HW
HStem: -16 134<418.305 711.695> 1062 20G<170 320 810 960> 1252 134<300 870>
VStem: 170 150<221.022 1082> 810 150<221.022 1082>
LayerCount: 3
Back
Fore
SplineSet
300 1386 m 1
 870 1386 l 1
 870 1252 l 1
 300 1252 l 1
 300 1386 l 1
EndSplineSet
Refer: 65 117 N 1 0 0 1 20 0 3
Validated: 1
Layer: 2
Substitution2: "'ss04' subtable" umacron.alt
EndChar
StartChar: Zacute
Encoding: 377 377 295
GlifName: Z_acute
Width: 1027
VWidth: 0
Flags: W
HStem: 0 140<266 947> 1276 140<105 741>
LayerCount: 3
Back
Fore
SplineSet
726 1830 m 1
 561 1556 l 1
 403 1556 l 1
 557 1830 l 1
 726 1830 l 1
EndSplineSet
Refer: 38 90 N 1 0 0 1 0 0 3
Validated: 1
Layer: 2
EndChar
StartChar: longs
Encoding: 383 383 470
GlifName: longs
Width: 565
Flags: W
HStem: 0 21G<160 310> 1378 134<344.63 563.272>
VStem: 160 150<0 1344.23>
LayerCount: 3
Back
Fore
SplineSet
160 1143 m 2
 160 1248 160 1325 215 1403 c 0
 260 1466 338 1512 445 1512 c 0
 491 1512 540 1504 585 1495 c 1
 558 1363 l 1
 525 1371 480 1378 445 1378 c 0
 395 1378 363 1361 341 1330 c 0
 310 1286 310 1234 310 1143 c 2
 310 0 l 1
 160 0 l 1
 160 1143 l 2
EndSplineSet
Validated: 1
Layer: 2
EndChar
StartChar: ohorn
Encoding: 417 417 725
Width: 1100
VWidth: 0
Flags: W
HStem: -16 134<390.875 709.125> 964 134<390.875 708.566>
VStem: 125 150<243.661 838.339> 825 150<243.661 806.717> 1004 140<933.06 1216>
AnchorPoint: "Top" 550 1082 basechar 0
AnchorPoint: "Bottom" 550 0 basechar 0
LayerCount: 3
Back
Fore
SplineSet
913 901 m 5
 984 931 1004 1000 1004 1091 c 6
 1004 1216 l 5
 1144 1216 l 5
 1144 1091 l 6
 1144 1013 1139 948 1081 878 c 4
 1051 842 1007 812 954 795 c 5
 975 712 975 625 975 541 c 4
 975 394 975 234 863 110 c 4
 797 37 687 -16 550 -16 c 4
 413 -16 303 37 237 110 c 4
 125 234 125 394 125 541 c 4
 125 688 125 848 237 972 c 4
 303 1045 413 1098 550 1098 c 4
 727 1098 850 1015 913 901 c 5
550 964 m 4
 461 964 392 932 351 885 c 4
 275 798 275 669 275 541 c 4
 275 413 275 284 351 197 c 4
 392 150 461 118 550 118 c 4
 639 118 708 150 749 197 c 4
 825 284 825 413 825 541 c 4
 825 669 825 798 749 885 c 4
 708 932 639 964 550 964 c 4
EndSplineSet
Validated: 1
Layer: 2
EndChar
StartChar: uni01D6
Encoding: 470 470 737
Width: 1100
VWidth: 0
Flags: HW
HStem: -16 134<398.305 691.695> 1062 20G<150 300 790 940> 1247 188<272.891 435.109 654.891 817.109> 1557 134<260 830>
VStem: 150 150<221.022 1082> 260 188<1259.89 1422.11> 642 188<1259.89 1422.11> 790 150<221.022 1082>
LayerCount: 3
Back
Fore
SplineSet
260 1691 m 1xf6
 830 1691 l 1
 830 1557 l 1
 260 1557 l 1
 260 1691 l 1xf6
EndSplineSet
Refer: 135 252 N 1 0 0 1 0 0 3
Validated: 1
Layer: 2
EndChar
StartChar: uni01D8
Encoding: 472 472 739
Width: 1100
VWidth: 0
Flags: HW
HStem: -16 134<398.305 691.695> 1062 20G<150 300 790 940> 1247 188<272.891 435.109 654.891 817.109>
VStem: 150 150<221.022 1082> 260 188<1259.89 1422.11> 642 188<1259.89 1422.11> 790 150<221.022 1082>
LayerCount: 3
Back
Fore
SplineSet
789 1831 m 1xe0
 624 1557 l 1
 466 1557 l 1
 620 1831 l 1
 789 1831 l 1xe0
EndSplineSet
Refer: 135 252 N 1 0 0 1 0 0 3
Validated: 1
Layer: 2
EndChar
StartChar: uni01DB
Encoding: 475 475 742
Width: 1236
VWidth: 0
HStem: -19 140<454.716 781.284> 1396 20G<160 316 920 1076> 1581 188<345.891 508.109 727.891 890.109>
VStem: 160 156<260.535 1416> 333 188<1593.89 1756.11> 715 188<1593.89 1756.11> 920 156<260.535 1416>
LayerCount: 3
Back
Fore
SplineSet
374 2165 m 1
 543 2165 l 1
 697 1891 l 1
 539 1891 l 1
 374 2165 l 1
EndSplineSet
Refer: 139 220 N 1 0 0 1 0 0 3
Validated: 1
Layer: 2
EndChar
StartChar: uni0237
Encoding: 567 567 383
GlifName: uni0237
Width: 480
VWidth: 0
Flags: W
HStem: -428 134<-20.349 149.74> 1062 20G<165 315>
VStem: 165 150<-281.902 1082>
AnchorPoint: "Bottom" 80 -414 basechar 0
AnchorPoint: "Top" 240 1082 basechar 0
LayerCount: 3
Back
Fore
SplineSet
315 -134 m 2
 315 -191 315 -228 305 -264 c 0
 277 -363 190 -428 80 -428 c 0
 33 -428 -13 -421 -51 -409 c 1
 -13 -279 l 1
 11 -287 41 -294 70 -294 c 0
 115 -294 142 -273 155 -240 c 0
 165 -215 165 -184 165 -129 c 2
 165 1082 l 1
 315 1082 l 1
 315 -134 l 2
EndSplineSet
Validated: 1
Layer: 2
EndChar
StartChar: dotaccent
Encoding: 729 729 195
GlifName: dotaccent
Width: 446
VWidth: 0
Flags: W
HStem: 1247 207<136.506 309.494>
VStem: 120 206<1263.51 1436.91>
AnchorPoint: "Bottom" 222 1632 mark 0
AnchorPoint: "Top" 223 1082 mark 0
LayerCount: 3
Back
Fore
SplineSet
223 1454 m 4
 284 1454 326 1410 326 1350 c 4
 326 1289 284 1247 223 1247 c 4
 162 1247 120 1289 120 1350 c 4
 120 1410 162 1454 223 1454 c 4
EndSplineSet
Validated: 1
Layer: 2
EndChar
StartChar: hungarumlaut
Encoding: 733 733 198
GlifName: hungarumlaut
Width: 850
Flags: W
HStem: 1222 274
VStem: 110 610
AnchorPoint: "Top" 360 1082 mark 0
LayerCount: 3
Back
Fore
SplineSet
720 1496 m 1
 556 1222 l 1
 408 1222 l 1
 561 1496 l 1
 720 1496 l 1
422 1496 m 1
 258 1222 l 1
 110 1222 l 1
 263 1496 l 1
 422 1496 l 1
EndSplineSet
Validated: 1
Layer: 2
EndChar
StartChar: uni0312
Encoding: 786 786 401
GlifName: uni0312
Width: 433
VWidth: 0
Flags: W
HStem: 1206 330<217 254.359>
VStem: 120 193<1220.34 1380.74>
AnchorPoint: "Top" 217 1082 mark 0
LayerCount: 3
Back
Fore
SplineSet
120 1301 m 0
 120 1330 133 1359 145 1383 c 2
 217 1536 l 1
 309 1536 l 1
 256 1387 l 0
 289 1375 313 1344 313 1301 c 0
 313 1246 270 1206 217 1206 c 0
 164 1206 120 1246 120 1301 c 0
EndSplineSet
Validated: 1
Layer: 2
EndChar
StartChar: tonos
Encoding: 900 900 454
GlifName: tonos
Width: 475
Flags: W
HStem: 1222 274<184 258>
VStem: 132 222
AnchorPoint: "Top" 198 1082 mark 0
LayerCount: 3
Back
Fore
SplineSet
354 1496 m 25
 258 1222 l 1
 132 1222 l 1
 184 1496 l 25
 354 1496 l 25
EndSplineSet
Validated: 1
Layer: 2
EndChar
StartChar: Iotatonos
Encoding: 906 906 603
Width: 698
VWidth: 0
Flags: W
HStem: 0 21G<362 518> 1396 20G<362 518>
VStem: 362 156<0 1416>
LayerCount: 3
Back
Fore
SplineSet
518 1416 m 1
 518 0 l 1
 362 0 l 1
 362 1416 l 1
 518 1416 l 1
272 1543 m 25
 176 1269 l 1
 50 1269 l 1
 102 1543 l 25
 272 1543 l 25
EndSplineSet
Validated: 1
Layer: 2
EndChar
StartChar: Omicrontonos
Encoding: 908 908 604
Width: 1356
VWidth: 0
Flags: W
HStem: -19 140<552.945 903.055> 1295 140<552.945 903.055>
VStem: 230 156<311.742 1104.26> 1070 156<311.742 1104.26>
LayerCount: 3
Back
Fore
SplineSet
728 1435 m 0
 944 1435 1091 1329 1160 1180 c 0
 1226 1038 1226 856 1226 708 c 0
 1226 560 1226 378 1160 236 c 0
 1091 87 944 -19 728 -19 c 0
 512 -19 365 87 296 236 c 0
 230 378 230 560 230 708 c 0
 230 856 230 1038 296 1180 c 0
 365 1329 512 1435 728 1435 c 0
728 1295 m 0
 583 1295 487 1229 440 1127 c 0
 387 1012 386 850 386 708 c 0
 386 566 387 404 440 289 c 0
 487 187 583 121 728 121 c 0
 873 121 969 187 1016 289 c 0
 1069 404 1070 566 1070 708 c 0
 1070 850 1069 1012 1016 1127 c 0
 969 1229 873 1295 728 1295 c 0
272 1543 m 25
 176 1269 l 1
 50 1269 l 1
 102 1543 l 25
 272 1543 l 25
EndSplineSet
Validated: 1
Layer: 2
EndChar
StartChar: Upsilontonos
Encoding: 910 910 605
Width: 1426
VWidth: 0
Flags: W
HStem: 0 21G<807 963> 1396 20G<384 561.925 1208.08 1386>
VStem: 807 156<0 506>
LayerCount: 3
Back
Fore
SplineSet
384 1416 m 1
 553 1416 l 1
 885 672 l 1
 1217 1416 l 1
 1386 1416 l 1
 963 506 l 1
 963 0 l 1
 807 0 l 1
 807 506 l 1
 384 1416 l 1
272 1543 m 25
 176 1269 l 1
 50 1269 l 1
 102 1543 l 25
 272 1543 l 25
EndSplineSet
Validated: 1
Layer: 2
EndChar
StartChar: Gamma
Encoding: 915 915 424
GlifName: G_amma
Width: 990
Flags: W
HStem: 0 21G<180 336> 1276 140<336 900>
VStem: 180 156<0 1276>
AnchorPoint: "Top" 490 1416 basechar 0
LayerCount: 3
Back
Fore
SplineSet
180 0 m 1
 180 1416 l 1
 900 1416 l 1
 900 1276 l 1
 336 1276 l 1
 336 0 l 1
 180 0 l 1
EndSplineSet
Validated: 1
Layer: 2
EndChar
StartChar: uni0394
Encoding: 916 916 425
GlifName: uni0394
Width: 1190
Flags: W
HStem: 0 140<250 940> 1396 20G<513.22 676.78>
LayerCount: 3
Back
Fore
SplineSet
940 140 m 1
 595 1205 l 1
 250 140 l 1
 940 140 l 1
520 1416 m 1
 670 1416 l 1
 1150 0 l 1
 40 0 l 1
 520 1416 l 1
EndSplineSet
Validated: 1
Layer: 2
EndChar
StartChar: Theta
Encoding: 920 920 444
GlifName: T_heta
Width: 1256
Flags: W
HStem: -19 140<452.945 803.055> 652 140<464 792> 1295 140<452.945 803.055>
VStem: 130 156<311.742 1104.26> 970 156<311.742 1104.26>
LayerCount: 3
Back
Fore
SplineSet
464 792 m 1
 792 792 l 1
 792 652 l 1
 464 652 l 1
 464 792 l 1
EndSplineSet
Refer: 16 79 N 1 0 0 1 0 0 2
Validated: 1
Layer: 2
EndChar
StartChar: Xi
Encoding: 926 926 442
GlifName: X_i
Width: 1017
VWidth: 0
Flags: W
HStem: 0 140<140 877> 652 140<201 816> 1276 140<140 877>
AnchorPoint: "DoubleTop" -7 0 basechar 0
AnchorPoint: "Apos" -7 0 basechar 0
AnchorPoint: "Center" -7 0 basechar 0
AnchorPoint: "Bottom" 515 0 basechar 0
AnchorPoint: "Top" 515 1364 basechar 0
LayerCount: 3
Back
Fore
SplineSet
201 792 m 1
 816 792 l 1
 816 652 l 1
 201 652 l 1
 201 792 l 1
140 140 m 1
 877 140 l 1
 877 0 l 1
 140 0 l 1
 140 140 l 1
140 1416 m 1
 877 1416 l 1
 877 1276 l 1
 140 1276 l 1
 140 1416 l 1
EndSplineSet
Validated: 1
Layer: 2
EndChar
StartChar: Pi
Encoding: 928 928 439
GlifName: P_i
Width: 1260
VWidth: 0
Flags: W
HStem: 0 21G<180 336 924 1080> 1276 140<336 924>
VStem: 180 156<0 1276> 924 156<0 1276>
LayerCount: 3
Back
Fore
SplineSet
180 1416 m 1
 1080 1416 l 1
 1080 0 l 1
 924 0 l 1
 924 1276 l 1
 336 1276 l 1
 336 0 l 1
 180 0 l 1
 180 1416 l 1
EndSplineSet
Validated: 1
Layer: 2
EndChar
StartChar: uni03A9
Encoding: 937 937 397
GlifName: uni03A_9
Width: 1310
VWidth: 0
Flags: W
HStem: 0 141<146 358 952 1164> 1295 140<477.178 832.822>
VStem: 167 156<367.347 1131.71> 987 156<367.347 1131.71>
LayerCount: 3
Back
Fore
SplineSet
655 1435 m 3
 814 1435 945 1373 1024 1280 c 0
 1130 1156 1143 1008 1143 843 c 3
 1143 453 1127 303 952 141 c 1
 1164 141 l 1
 1164 0 l 1
 739 0 l 1
 739 109 l 1
 982 248 987 504 987 843 c 3
 987 963 982 1102 902 1194 c 0
 849 1255 762 1295 655 1295 c 3
 548 1295 461 1255 408 1194 c 0
 328 1102 323 963 323 843 c 3
 323 504 328 248 571 109 c 1
 571 0 l 1
 146 0 l 1
 146 141 l 1
 358 141 l 1
 183 303 167 453 167 843 c 3
 167 1008 180 1156 286 1280 c 0
 365 1373 496 1435 655 1435 c 3
EndSplineSet
Validated: 1
Layer: 2
EndChar
StartChar: beta
Encoding: 946 946 378
GlifName: beta
Width: 1120
Flags: W
HStem: -16 134<357.725 725.653> 720 134<502 681.888> 1298 134<391.517 667.903>
VStem: 160 150<-414 35 164.747 1212.89> 750 150<924.126 1214.99> 860 150<255.021 586.222>
LayerCount: 3
Back
Fore
SplineSet
310 35 m 1xf4
 310 -414 l 1
 160 -414 l 1
 160 981 l 2
 160 1101 160 1222 258 1324 c 0
 319 1388 414 1432 530 1432 c 0
 743 1432 900 1283 900 1069 c 0xf8
 900 954 856 863 773 803 c 1
 917 737 1010 603 1010 419 c 0
 1010 172 829 -16 565 -16 c 0
 473 -16 383 7 310 35 c 1xf4
310 183 m 1
 380 150 473 118 565 118 c 0
 746 118 860 245 860 419 c 0xf4
 860 521 818 606 761 655 c 0
 697 710 620 720 502 720 c 1
 502 854 l 1
 590 854 639 859 684 900 c 0
 723 935 750 996 750 1069 c 0
 750 1204 663 1298 530 1298 c 0
 462 1298 408 1273 372 1236 c 0
 310 1173 310 1087 310 981 c 2
 310 183 l 1
EndSplineSet
Validated: 1
Layer: 2
EndChar
StartChar: gamma
Encoding: 947 947 379
GlifName: gamma
Width: 990
Flags: W
HStem: 1062 20G<60 223.185 766.815 930>
VStem: 420 150<-414 0>
AnchorPoint: "Top" 495 1082 basechar 0
LayerCount: 3
Back
Fore
SplineSet
570 0 m 1
 570 -414 l 1
 420 -414 l 1
 420 0 l 1
 60 1082 l 1
 217 1082 l 1
 495 183 l 1
 773 1082 l 1
 930 1082 l 1
 570 0 l 1
EndSplineSet
Validated: 1
Layer: 2
EndChar
StartChar: zeta
Encoding: 950 950 485
GlifName: zeta
Width: 900
Flags: W
HStem: 1282 134<133 587>
VStem: 100 150<237.696 598.225> 650 140<-219.719 -29.4087>
LayerCount: 3
Back
SplineSet
587 116 m 4
 711 92 790 20 790 -79 c 4
 790 -150 755 -212 726 -264 c 5
 616 -213 l 5
 636 -170 650 -133 650 -99 c 4
 650 -36 597 -19 534 -11 c 4
 410 5 324 29 248 85 c 4
 158 152 100 265 100 393 c 4
 100 578 192 754 308 917 c 4
 405 1054 505 1181 587 1282 c 5
 133 1282 l 5
 133 1416 l 5
 796 1416 l 5
 796 1310 l 5
 703 1196 576 1043 461 884 c 4
 342 720 250 555 250 393 c 4
 250 334 270 253 334 196 c 4
 405 133 498 133 587 116 c 4
EndSplineSet
Fore
SplineSet
790 -79 m 0
 790 -150 755 -212 726 -264 c 1
 616 -213 l 1
 636 -170 650 -133 650 -99 c 0
 650 -36 593 -17 540 -12 c 0
 276 15 100 145 100 393 c 0
 100 578 192 754 308 917 c 0
 405 1054 505 1181 587 1282 c 1
 133 1282 l 1
 133 1416 l 1
 796 1416 l 1
 796 1310 l 1
 703 1196 576 1043 461 884 c 0
 342 720 250 555 250 393 c 0
 250 230 340 148 557 121 c 0
 669 107 790 47 790 -79 c 0
EndSplineSet
Validated: 1
Layer: 2
EndChar
StartChar: eta
Encoding: 951 951 445
GlifName: eta
Width: 1100
Flags: W
HStem: 0 21G<160 310> 964 134<407.919 706.233> 1062 20G<160 310>
VStem: 160 150<0 864.073 970 1082> 800 150<-414 867.577>
AnchorPoint: "Top" 575 1082 basechar 0
LayerCount: 3
Back
Fore
SplineSet
575 1098 m 0xd8
 713 1098 820 1036 881 948 c 0
 950 844 950 731 950 586 c 2
 950 -414 l 1
 800 -414 l 1
 800 586 l 2
 800 722 800 806 752 874 c 0
 713 929 643 964 555 964 c 0xd8
 468 964 400 928 361 874 c 0
 310 804 310 722 310 586 c 2
 310 0 l 1
 160 0 l 1
 160 1082 l 1
 310 1082 l 1xb8
 310 970 l 1
 378 1053 468 1098 575 1098 c 0xd8
EndSplineSet
Validated: 1
Layer: 2
EndChar
StartChar: theta
Encoding: 952 952 461
GlifName: theta
Width: 1090
VWidth: 0
Flags: W
HStem: -16 134<400.147 689.853> 657 130<300 790> 1298 134<400.147 689.853>
VStem: 150 150<230.927 657 787 1185.07> 790 150<230.927 657 787 1185.07>
LayerCount: 3
Back
Fore
SplineSet
545 1298 m 0
 465 1298 359 1271 321 1125 c 0
 304 1061 301 903 300 787 c 1
 790 787 l 1
 789 903 786 1061 769 1125 c 0
 731 1271 625 1298 545 1298 c 0
545 1432 m 0
 742 1432 876 1317 915 1156 c 0
 940 1053 940 830 940 708 c 0
 940 586 940 363 915 260 c 0
 876 99 742 -16 545 -16 c 0
 348 -16 214 99 175 260 c 0
 150 363 150 586 150 708 c 0
 150 830 150 1053 175 1156 c 0
 214 1317 348 1432 545 1432 c 0
300 657 m 1
 300 541 303 361 321 291 c 0
 359 145 465 118 545 118 c 0
 625 118 731 145 769 291 c 0
 787 361 790 541 790 657 c 1
 300 657 l 1
EndSplineSet
Validated: 1
Layer: 2
EndChar
StartChar: uni03BC
Encoding: 956 956 376
GlifName: uni03B_C_
Width: 1110
VWidth: 0
Flags: W
HStem: -16 134<407.996 705.535> 0 21G<800 950> 1062 20G<160 310 800 950>
VStem: 160 150<-414 112 217.927 1082> 800 150<0 115 214.329 1082>
LayerCount: 3
Back
SplineSet
950 236 m 6
 950 172 953 156 972 137 c 4
 988 121 1009 117 1024 117 c 4
 1034 117 1043 119 1043 119 c 5
 1068 -6 l 5
 1046 -14 1025 -16 1005 -16 c 4
 915 -16 832 36 816 135 c 5
 751 39 657 -16 560 -16 c 4
 459 -16 374 29 310 112 c 5
 310 -414 l 5
 160 -414 l 5
 160 1082 l 5
 310 1082 l 5
 310 496 l 6
 310 360 310 278 361 208 c 4
 400 154 468 118 555 118 c 4
 643 118 713 153 752 208 c 4
 800 275 800 358 800 492 c 6
 800 1082 l 5
 950 1082 l 5
 950 236 l 6
EndSplineSet
Fore
SplineSet
950 0 m 17x78
 800 0 l 1x78
 800 115 l 1
 738 32 647 -16 555 -16 c 0
 456 -16 373 29 310 112 c 1
 310 -414 l 1
 160 -414 l 1
 160 1082 l 1
 310 1082 l 1
 310 496 l 2
 310 360 310 278 361 208 c 0
 400 154 468 118 555 118 c 0xb8
 643 118 713 153 752 208 c 0
 800 275 800 358 800 492 c 2
 800 1082 l 1
 950 1082 l 1
 950 0 l 17x78
EndSplineSet
Validated: 1
Layer: 2
EndChar
StartChar: xi
Encoding: 958 958 486
GlifName: xi
Width: 940
Flags: W
HStem: 724 134<383.725 728> 1298 134<373.383 763.331>
VStem: 120 150<244.005 612.207> 150 150<939.776 1223.2> 710 140<-219.719 -30.7439>
LayerCount: 3
Back
Fore
SplineSet
524 1432 m 0xd8
 650 1432 751 1401 855 1365 c 1
 812 1237 l 1
 730 1265 632 1298 524 1298 c 0
 447 1298 391 1277 353 1235 c 0
 320 1199 300 1143 300 1085 c 0xd8
 300 1012 326 951 369 913 c 0
 431 858 503 858 608 858 c 2
 728 858 l 1
 728 724 l 1
 608 724 l 2
 493 724 414 724 346 655 c 0
 296 604 270 522 270 427 c 0
 270 356 286 284 323 231 c 0
 410 105 559 133 646 116 c 0
 759 95 850 32 850 -79 c 0
 850 -150 815 -212 786 -264 c 1
 676 -213 l 1
 696 -170 710 -133 710 -99 c 0
 710 -22 628 -15 538 -9 c 0
 402 0 280 38 195 161 c 0
 154 221 120 309 120 427 c 0xe8
 120 595 181 721 313 793 c 1
 209 852 150 954 150 1085 c 0
 150 1168 175 1251 234 1317 c 0
 300 1390 397 1432 524 1432 c 0xd8
EndSplineSet
Validated: 1
Layer: 2
EndChar
StartChar: pi
Encoding: 960 960 380
GlifName: pi
Width: 1200
VWidth: 0
Flags: W
HStem: -16 134<966.125 1053.64> 0 21G<240 390> 948 134<100 240 390 810 960 1100>
VStem: 240 150<0 948> 810 150<132.663 948>
LayerCount: 3
Back
Fore
SplineSet
100 1082 m 5x78
 1100 1082 l 5
 1100 948 l 5
 960 948 l 5
 960 191 l 6
 960 169 960 146 971 132 c 4
 979 122 990 118 1006 118 c 4
 1020 118 1036 120 1052 124 c 5
 1076 -4 l 5
 1049 -12 1019 -16 984 -16 c 4xb8
 928 -16 880 11 848 50 c 4
 810 96 810 158 810 191 c 6
 810 948 l 5
 390 948 l 5
 390 0 l 5
 240 0 l 5
 240 948 l 5
 100 948 l 5
 100 1082 l 5x78
EndSplineSet
Validated: 1
Layer: 2
EndChar
StartChar: rho
Encoding: 961 961 448
GlifName: rho
Width: 1095
Flags: W
HStem: -16 134<406.127 704.457> 964 134<407.013 702.987>
VStem: 140 150<-414 117 241.242 839.78> 820 150<242.001 840.617>
LayerCount: 3
Back
Fore
SplineSet
555 964 m 0
 462 964 391 924 350 866 c 0
 290 782 290 662 290 541 c 0
 290 418 291 300 350 217 c 0
 391 159 462 118 555 118 c 0
 648 118 719 159 760 217 c 0
 819 300 820 418 820 541 c 0
 820 662 820 782 760 866 c 0
 719 924 648 964 555 964 c 0
555 1098 m 0
 702 1098 821 1031 886 938 c 0
 970 819 970 683 970 541 c 0
 970 408 970 261 890 144 c 0
 825 53 719 -16 575 -16 c 0
 447 -16 361 31 290 117 c 1
 290 -414 l 1
 140 -414 l 1
 140 541 l 0
 140 683 140 819 224 938 c 0
 289 1031 408 1098 555 1098 c 0
EndSplineSet
Validated: 1
Layer: 2
EndChar
StartChar: tau
Encoding: 964 964 462
GlifName: tau
Width: 916
VWidth: 0
Flags: W
HStem: -16 134<539.125 626.64> 948 134<80 383 533 836>
VStem: 383 150<132.663 948>
LayerCount: 3
Back
Fore
SplineSet
625 124 m 5
 649 -4 l 5
 622 -12 592 -16 557 -16 c 4
 501 -16 453 11 421 50 c 4
 383 96 383 158 383 191 c 6
 383 948 l 5
 80 948 l 5
 80 1082 l 5
 836 1082 l 5
 836 948 l 5
 533 948 l 5
 533 191 l 6
 533 169 533 146 544 132 c 4
 552 122 563 118 579 118 c 4
 593 118 609 120 625 124 c 5
EndSplineSet
Validated: 1
Layer: 2
EndChar
StartChar: chi
Encoding: 967 967 482
GlifName: chi
Width: 968
VWidth: 0
Flags: W
HStem: 1062 20G<57 228.859 739.141 911>
LayerCount: 3
Back
SplineSet
918 -414 m 5
 755 -414 l 5
 484 167 l 5
 213 -414 l 5
 50 -414 l 5
 403 342 l 5
 57 1082 l 5
 220 1082 l 5
 484 516 l 5
 748 1082 l 5
 911 1082 l 5
 565 342 l 5
 918 -414 l 5
EndSplineSet
Fore
SplineSet
918 -414 m 1
 755 -414 l 1
 484 197 l 1
 213 -414 l 1
 50 -414 l 1
 401 342 l 1
 57 1082 l 1
 220 1082 l 1
 484 486 l 1
 748 1082 l 1
 911 1082 l 1
 567 342 l 1
 918 -414 l 1
EndSplineSet
Validated: 1
Layer: 2
EndChar
StartChar: psi
Encoding: 968 968 488
GlifName: psi
Width: 1390
VWidth: 0
Flags: W
HStem: -14 135<453.464 620 770 942.439> 1062 20G<140 290 620 770 1092.23 1221.5>
VStem: 140 150<305.877 1082> 620 150<-414 -14 121 1082> 1115 150<315.58 1000.69>
AnchorPoint: "Top" 582 1083 basechar 0
LayerCount: 3
Back
SplineSet
514 774 m 5
 664 774 l 5
 664 468 l 6
 664 376 665 270 722 197 c 4
 758 151 815 118 891 118 c 4
 1051 118 1118 260 1118 441 c 4
 1118 645 1086 853 1042 1067 c 5
 1188 1097 l 5
 1236 871 1268 643 1268 442 c 4
 1268 178 1137 -16 901 -16 c 4
 753 -16 652 47 589 153 c 5
 526 47 425 -16 277 -16 c 4
 41 -16 -90 178 -90 442 c 4
 -90 643 -58 871 -10 1097 c 5
 136 1067 l 5
 92 853 60 645 60 441 c 4
 60 260 127 118 287 118 c 4
 363 118 420 151 456 197 c 4
 513 270 514 376 514 468 c 6
 514 774 l 5
EndSplineSet
Fore
SplineSet
770 -13 m 0
 770 -414 l 1
 620 -414 l 1
 620 -14 l 1
 432 -6 292 70 214 214 c 0
 140 350 140 507 140 648 c 2
 140 1082 l 1
 290 1082 l 1
 290 648 l 2
 290 508 291 381 349 273 c 0
 406 168 503 127 620 121 c 1
 620 1082 l 1
 770 1082 l 1
 770 121 l 0
 1013 121 1115 310 1115 551 c 0
 1115 720 1091 892 1059 1069 c 1
 1203 1095 l 1
 1240 908 1265 719 1265 552 c 0
 1265 226 1088 -13 770 -13 c 0
EndSplineSet
Validated: 1
Layer: 2
SplineSet
620 -16 m 4
 621 -414 l 5
 771 -414 l 5
 771 -14 l 5
 959 -6 1099 70 1177 214 c 4
 1251 350 1251 507 1251 648 c 6
 1251 1082 l 5
 1101 1082 l 5
 1101 648 l 6
 1101 508 1100 381 1042 273 c 4
 985 168 888 127 771 121 c 5
 771 1082 l 5
 621 1082 l 5
 620 118 l 4
 375.418945312 118 273 290.774414062 273 511 c 4
 273 692.83984375 296.579101562 878.24609375 329 1069 c 5
 185 1095 l 5
 147.799804688 893.842773438 123 690.905273438 123 512 c 4
 123 207.650390625 300.403320312 -16 620 -16 c 4
EndSplineSet
EndChar
StartChar: uni0404
Encoding: 1028 1028 670
Width: 1114
Flags: W
HStem: -19 140<445.071 823.011> 652 140<287 870> 1295 140<446.451 815.402>
VStem: 130 156<308.386 652 792 1109.25>
LayerCount: 3
Back
Fore
SplineSet
618 1435 m 4
 772 1435 897 1381 992 1314 c 5
 912 1194 l 5
 832 1251 738 1295 618 1295 c 4
 473 1295 382 1230 336 1125 c 4
 298 1037 289 915 287 792 c 5
 870 792 l 5
 870 652 l 5
 286 652 l 5
 287 519 295 386 336 291 c 4
 382 186 473 121 618 121 c 4
 748 121 862 172 942 240 c 5
 1030 124 l 5
 927 43 786 -19 618 -19 c 4
 404 -19 259 86 191 238 c 4
 133 367 130 543 130 708 c 4
 130 876 134 1053 191 1178 c 4
 262 1334 409 1435 618 1435 c 4
EndSplineSet
Validated: 1
Layer: 2
EndChar
StartChar: uni040B
Encoding: 1035 1035 677
Width: 1146
Flags: W
HStem: 0 140<336 753.654> 760 140<336 753.654> 1276 140<-37 180>
VStem: 180 156<140 760 900 1276> 890 156<278.186 621.814>
LayerCount: 3
Back
Fore
SplineSet
502 140 m 2
 588 140 649 140 707 161 c 0
 834 207 890 332 890 450 c 0
 890 568 834 693 707 739 c 0
 649 760 588 760 502 760 c 2
 336 760 l 1
 336 140 l 1
 502 140 l 2
336 1416 m 5
 336 900 l 1
 502 900 l 2
 585 900 647 900 715 884 c 0
 927 834 1046 653 1046 450 c 0
 1046 247 927 66 715 16 c 0
 647 0 585 0 502 0 c 2
 180 0 l 1
 180 1276 l 1
 -37 1276 l 1
 -37 1416 l 1
 336 1416 l 5
EndSplineSet
Validated: 1
Layer: 2
EndChar
StartChar: uni0411
Encoding: 1041 1041 646
Width: 1166
Flags: W
HStem: 0 140<336 762.934> 730 140<336 762.934> 1276 140<336 900>
VStem: 180 156<140 730 870 1276> 890 156<267.94 602.06>
LayerCount: 3
Back
SplineSet
547 870 m 4
 600.737304688 870 661.284179688 869.5546875 724.708007812 854.409179688 c 4
 788.05859375 839.282226562 848.611328125 810.346679688 898.913085938 767.72265625 c 4
 948.98828125 725.291992188 986.361328125 671.99609375 1010.6015625 614.31640625 c 4
 1034.74414062 556.8671875 1046 495.671875 1046 435 c 4
 1046 374.329101562 1034.74316406 313.130859375 1010.60253906 255.684570312 c 4
 986.360351562 198.001953125 948.990234375 144.708984375 898.913085938 102.276367188 c 4
 848.611328125 59.6533203125 788.057617188 30.7177734375 724.708007812 15.5908203125 c 4
 661.276367188 0.443359375 600.75 0 547 0 c 1028
547 140 m 4
 598.98828125 140 645.180664062 141.471679688 684.594726562 150.8828125 c 4
 724.090820312 160.314453125 761.4453125 178.337890625 791.815429688 204.072265625 c 4
 822.41015625 229.99609375 847.913085938 265.291015625 864.637695312 305.086914062 c 4
 881.461914062 345.12109375 890 389.932617188 890 435 c 4
 890 480.06640625 881.4609375 524.879882812 864.638671875 564.911132812 c 4
 847.912109375 604.7109375 822.412109375 640.002929688 791.815429688 665.928710938 c 4
 761.4453125 691.662109375 724.08984375 709.685546875 684.594726562 719.1171875 c 4
 645.172851562 728.530273438 599.000976562 730 547 730 c 1028
EndSplineSet
Fore
SplineSet
547 870 m 6
 635 870 778 870 899 768 c 4
 989 692 1046 572 1046 435 c 4
 1046 298 989 178 899 102 c 4
 778 0 635 -1.07768918325e-14 547 0 c 6
 180 0 l 5
 180 1416 l 5
 900 1416 l 5
 900 1276 l 5
 336 1276 l 5
 336 870 l 5
 547 870 l 6
890 435 m 4
 890 536 849 617 792 666 c 4
 717 730 620 730 547 730 c 6
 336 730 l 5
 336 140 l 5
 547 140 l 6
 620 140 717 140 792 204 c 4
 849 253 890 334 890 435 c 4
EndSplineSet
Validated: 1
Layer: 2
EndChar
StartChar: uni0413
Encoding: 1043 1043 622
Width: 990
Flags: W
HStem: 0 21G<180 336> 1276 140<336 900>
VStem: 180 156<0 1276>
LayerCount: 3
Back
Fore
SplineSet
180 0 m 5
 180 1416 l 5
 900 1416 l 5
 900 1276 l 5
 336 1276 l 5
 336 0 l 5
 180 0 l 5
EndSplineSet
Validated: 1
Layer: 2
EndChar
StartChar: uni0414
Encoding: 1044 1044 682
Width: 1280
VWidth: 0
Flags: W
HStem: 0 21G<180 1100> 1396 20G<180 1100>
VStem: 180 920<0 1416>
LayerCount: 3
Back
Fore
SplineSet
180 1416 m 5
 1100 1416 l 5
 1100 0 l 5
 180 0 l 5
 180 1416 l 5
EndSplineSet
Validated: 1
Layer: 2
EndChar
StartChar: uni0418
Encoding: 1048 1048 624
Width: 1294
VWidth: 0
Flags: W
HStem: 0 21G<180 347.933 958 1114> 1396 20G<180 336 946.067 1114>
VStem: 180 156<280 1416> 958 156<0 1136>
AnchorPoint: "Top" 647 1416 basechar 0
LayerCount: 3
Back
Fore
SplineSet
336 1416 m 1
 336 280 l 1
 957 1416 l 1
 1114 1416 l 1
 1114 0 l 1
 958 0 l 1
 958 1136 l 1
 337 0 l 1
 180 0 l 1
 180 1416 l 1
 336 1416 l 1
EndSplineSet
Validated: 1
Layer: 2
EndChar
StartChar: uni0426
Encoding: 1062 1062 686
Width: 1301
VWidth: 0
Flags: W
HStem: 0 140<336 908 1064 1065> 1396 20G<180 336 908 1064>
VStem: 180 156<140 1416> 908 156<140 1416> 1065 156<-264 0>
LayerCount: 3
Back
Fore
SplineSet
908 140 m 5
 908 1416 l 5
 1064 1416 l 5
 1064 140 l 5
 1221 140 l 5
 1221 -264 l 5
 1065 -264 l 5
 1065 0 l 5
 180 0 l 1
 180 1416 l 1
 336 1416 l 1
 336 140 l 1
 908 140 l 5
EndSplineSet
Validated: 1
Layer: 2
EndChar
StartChar: uni042D
Encoding: 1069 1069 660
Width: 1114
Flags: W
HStem: -19 140<290.989 668.929> 652 140<244 827> 1295 140<298.598 667.549>
VStem: 828 156<308.386 652 792 1109.25>
LayerCount: 3
Back
Fore
SplineSet
496 1435 m 4
 705 1435 852 1334 923 1178 c 4
 980 1053 984 876 984 708 c 4
 984 543 981 367 923 238 c 4
 855 86 710 -19 496 -19 c 4
 328 -19 187 43 84 124 c 5
 172 240 l 5
 252 172 366 121 496 121 c 4
 641 121 732 186 778 291 c 4
 819 386 827 519 828 652 c 5
 244 652 l 5
 244 792 l 5
 827 792 l 5
 825 915 816 1037 778 1125 c 4
 732 1230 641 1295 496 1295 c 4
 376 1295 282 1251 202 1194 c 5
 122 1314 l 5
 217 1381 342 1435 496 1435 c 4
EndSplineSet
Validated: 1
Layer: 2
EndChar
StartChar: uni042E
Encoding: 1070 1070 648
Width: 1616
Flags: W
HStem: -19 140<870.641 1181.87> 0 21G<180 336> 652 140<336 568> 1295 140<870.641 1181.87> 1396 20G<180 336>
VStem: 180 156<0 652 792 1416> 568 156<297.326 652 792 1116.75> 1330 156<301.206 1114.79>
LayerCount: 3
Back
Fore
SplineSet
1027 1295 m 4xb7
 899 1295 810 1225 771 1127 c 4
 726 1013 724 856 724 708 c 4
 724 560 726 403 771 289 c 4
 810 191 899 121 1027 121 c 4
 1153 121 1242 191 1281 289 c 4
 1325 399 1330 560 1330 708 c 4
 1330 856 1325 1017 1281 1127 c 4
 1242 1225 1153 1295 1027 1295 c 4xb7
1027 1435 m 4
 1228 1435 1365 1324 1427 1176 c 4
 1480 1049 1486 872 1486 708 c 4
 1486 544 1480 367 1427 240 c 4
 1365 92 1228 -19 1027 -19 c 4xb7
 824 -19 687 92 625 240 c 4
 576 358 570 505 568 652 c 5
 336 652 l 1
 336 0 l 1
 180 0 l 1
 180 1416 l 1
 336 1416 l 1x6f
 336 792 l 1
 568 792 l 5
 570 930 579 1065 625 1176 c 4
 687 1324 824 1435 1027 1435 c 4
EndSplineSet
Validated: 1
Layer: 2
EndChar
StartChar: uni042F
Encoding: 1071 1071 643
Width: 1141
Flags: W
HStem: 0 21G<90 268.137 805 961> 556 140<513 805> 1276 140<392.86 805>
VStem: 115 156<821.173 1153.72> 805 156<0 556 696 1276>
LayerCount: 3
Back
Fore
SplineSet
634 1416 m 2
 961 1416 l 1
 961 0 l 1
 805 0 l 1
 805 556 l 1
 513 556 l 1
 259 0 l 1
 90 0 l 1
 367 592 l 1
 218 651 115 800 115 986 c 0
 115 1170 215 1318 364 1379 c 0
 454 1416 523 1416 634 1416 c 2
634 1276 m 2
 546 1276 487 1276 430 1252 c 0
 304 1199 271 1071 271 986 c 0
 271 901 304 773 430 720 c 0
 487 696 546 696 634 696 c 2
 805 696 l 1
 805 1276 l 1
 634 1276 l 2
EndSplineSet
Validated: 1
Layer: 2
EndChar
StartChar: uni0433
Encoding: 1075 1075 661
Width: 880
Flags: W
HStem: 0 21G<160 310> 948 134<310 800>
VStem: 160 150<0 948>
AnchorPoint: "Top" 505 1082 basechar 0
LayerCount: 3
Back
Fore
SplineSet
160 1082 m 1
 800 1082 l 1
 800 948 l 1
 310 948 l 1
 310 0 l 1
 160 0 l 1
 160 1082 l 1
EndSplineSet
Validated: 1
Layer: 2
EndChar
StartChar: uni0438
Encoding: 1080 1080 649
Width: 1110
Flags: W
HStem: 0 21G<160 322.898 800 950> 1062 20G<160 310 787.102 950>
VStem: 160 150<260 1082> 800 150<0 822>
AnchorPoint: "Top" 555 1082 basechar 0
LayerCount: 3
Back
Fore
SplineSet
310 1082 m 1
 310 260 l 1
 799 1082 l 1
 950 1082 l 1
 950 0 l 1
 800 0 l 1
 800 822 l 1
 311 0 l 1
 160 0 l 1
 160 1082 l 1
 310 1082 l 1
EndSplineSet
Validated: 1
Layer: 2
EndChar
StartChar: uni0442
Encoding: 1090 1090 638
Width: 916
VWidth: 0
Flags: W
HStem: 0 21G<383 533> 948 134<80 383 533 836>
VStem: 383 150<0 948>
LayerCount: 3
Back
Fore
SplineSet
383 0 m 5
 383 948 l 1
 80 948 l 1
 80 1082 l 1
 836 1082 l 1
 836 948 l 1
 533 948 l 1
 533 0 l 5
 383 0 l 5
EndSplineSet
Validated: 1
Layer: 2
EndChar
StartChar: uni0443
Encoding: 1091 1091 639
Width: 987
Flags: W
HStem: -427 134<120.725 344.879> 1062 20G<60 222.825 768.215 927>
AnchorPoint: "Top" 494 1082 basechar 0
LayerCount: 3
Back
Fore
SplineSet
94 -409 m 1
 127 -279 l 1
 160 -288 192 -293 222 -293 c 0
 274 -293 313 -278 342 -255 c 0
 383 -223 398 -178 415 -124 c 2
 452 -2 l 1
 60 1082 l 1
 216 1082 l 1
 518 197 l 1
 774 1082 l 1
 927 1082 l 1
 550 -159 l 2
 525 -242 498 -299 444 -347 c 0
 391 -394 318 -427 222 -427 c 0
 176 -427 134 -419 94 -409 c 1
EndSplineSet
Validated: 1
Layer: 2
EndChar
StartChar: uni0444
Encoding: 1092 1092 640
Width: 1300
VWidth: 0
Flags: W
HStem: -15 135<413.166 575 725 886.834> 962 135<413.166 575 725 886.834>
VStem: 125 150<270.667 811.333> 575 150<-414 -15 120 962 1097 1496> 1025 150<270.667 811.333>
CounterMasks: 1 38
LayerCount: 3
Back
Fore
SplineSet
725 962 m 1
 725 120 l 1
 804 124 875 140 933 200 c 0
 1007 277 1025 397 1025 541 c 0
 1025 685 1007 805 933 882 c 0
 875 942 804 958 725 962 c 1
575 -15 m 1
 473 -12 341 14 245 121 c 0
 152 225 125 363 125 541 c 0
 125 719 152 857 245 961 c 0
 341 1068 473 1094 575 1097 c 1
 575 1496 l 1
 725 1496 l 1
 725 1097 l 1
 827 1094 959 1068 1055 961 c 0
 1148 857 1175 719 1175 541 c 0
 1175 363 1148 225 1055 121 c 0
 959 14 827 -12 725 -15 c 1
 725 -414 l 1
 575 -414 l 1
 575 -15 l 1
575 962 m 1
 496 958 425 942 367 882 c 0
 293 805 275 685 275 541 c 0
 275 397 293 277 367 200 c 0
 425 140 496 124 575 120 c 1
 575 962 l 1
EndSplineSet
Validated: 1
Layer: 2
EndChar
StartChar: uni0446
Encoding: 1094 1094 694
Width: 1110
VWidth: 0
Flags: W
HStem: 0 140<310 800> 1062 20G<160 310 800 950>
VStem: 160 150<140 1082> 800 150<140 1082> 950 150<-264 0>
LayerCount: 3
Back
Fore
SplineSet
310 140 m 1xe8
 800 140 l 1
 800 1082 l 1
 950 1082 l 1
 950 140 l 1xf0
 1100 140 l 1
 1100 -264 l 1
 950 -264 l 1
 950 0 l 1
 160 0 l 1
 160 1082 l 1
 310 1082 l 1
 310 140 l 1xe8
EndSplineSet
Validated: 1
Layer: 2
EndChar
StartChar: uni0447
Encoding: 1095 1095 695
Width: 1280
VWidth: 0
Flags: W
HStem: 0 21G<180 1100> 1396 20G<180 1100>
VStem: 180 920<0 1416>
LayerCount: 3
Back
Fore
SplineSet
180 1416 m 5
 1100 1416 l 5
 1100 0 l 5
 180 0 l 5
 180 1416 l 5
EndSplineSet
Validated: 1
Layer: 2
EndChar
StartChar: uni044E
Encoding: 1102 1102 702
Width: 1420
VWidth: 0
Flags: W
HStem: -16 134<744.325 1035.68> 0 21G<160 310> 474 134<310 485> 964 134<744.325 1035.68> 1062 20G<160 310>
VStem: 160 150<0 474 608 1082> 485 150<234.633 474 608 847.172> 1145 150<235.326 846.851>
LayerCount: 3
Back
SplineSet
362.498046875 892.98046875 m 4
 327.514648438 855.666015625 304.5234375 799.984375 294.748046875 739.372070312 c 4
 285.659179688 683.016601562 284.995117188 622.760742188 284.995117188 559.743164062 c 4
 284.995117188 553.524414062 285 547.276367188 285 541 c 4
 285 534.723632812 284.995117188 528.475585938 284.995117188 522.256835938 c 4
 284.995117188 459.239257812 285.659179688 398.983398438 294.748046875 342.62890625 c 4
 304.524414062 282.01171875 327.512695312 226.336914062 362.498046875 189.018554688 c 4
 384.592773438 165.451171875 412.438476562 147.211914062 442.366210938 135.586914062 c 4
 472.698242188 123.8046875 506.053710938 118 540 118 c 4
 573.946289062 118 607.30078125 123.8046875 637.634765625 135.586914062 c 4
 667.561523438 147.211914062 695.40625 165.451171875 717.501953125 189.01953125 c 4
 752.485351562 226.333984375 775.4765625 282.015625 785.251953125 342.62890625 c 4
 794.340820312 398.983398438 795.004882812 459.239257812 795.004882812 522.256835938 c 4
 795.004882812 528.475585938 795 534.723632812 795 541 c 4
 795 547.276367188 795.004882812 553.524414062 795.004882812 559.743164062 c 4
 795.004882812 622.760742188 794.340820312 683.016601562 785.251953125 739.37109375 c 4
 775.475585938 799.989257812 752.487304688 855.663085938 717.501953125 892.98046875 c 4
 695.405273438 916.55078125 667.5625 934.787109375 637.634765625 946.412109375 c 4
 607.297851562 958.197265625 573.947265625 964 540 964 c 4
 506.053710938 964 472.69921875 958.196289062 442.3671875 946.413085938 c 4
 412.435546875 934.787109375 384.594726562 916.549804688 362.498046875 892.98046875 c 4
247.501953125 979.018554688 m 4
 284.846679688 1018.85253906 331.470703125 1049.45703125 382.55078125 1069.29785156 c 4
 433.228515625 1088.98339844 487.038085938 1098 540 1098 c 4
 592.9609375 1098 646.774414062 1088.98242188 697.447265625 1069.29882812 c 4
 748.53125 1049.45605469 795.153320312 1018.85253906 832.498046875 979.018554688 c 4
 892.540039062 914.975585938 921.374023438 835.029296875 933.71875 758.479492188 c 4
 944.762695312 689.998046875 945.004882812 623.282226562 945.004882812 559.743164062 c 4
 945.004882812 553.461914062 945 547.213867188 945 541 c 4
 945 534.786132812 945.004882812 528.538085938 945.004882812 522.256835938 c 4
 945.004882812 458.717773438 944.762695312 392.001953125 933.71875 323.520507812 c 4
 921.373046875 246.966796875 892.541992188 167.02734375 832.498046875 102.98046875 c 4
 795.15234375 63.146484375 748.532226562 32.544921875 697.447265625 12.701171875 c 4
 646.771484375 -6.9833984375 592.961914062 -16 540 -16 c 4
 487.038085938 -16 433.229492188 -6.984375 382.551757812 12.701171875 c 4
 331.467773438 32.544921875 284.848632812 63.1455078125 247.501953125 102.981445312 c 4
 187.459960938 167.025390625 158.625976562 246.970703125 146.28125 323.520507812 c 4
 135.237304688 392.001953125 134.995117188 458.717773438 134.995117188 522.256835938 c 4
 134.995117188 528.538085938 135 534.786132812 135 541 c 4
 135 547.213867188 134.995117188 553.461914062 134.995117188 559.743164062 c 4
 134.995117188 623.282226562 135.237304688 689.998046875 146.28125 758.479492188 c 4
 158.626953125 835.033203125 187.458007812 914.973632812 247.501953125 979.018554688 c 4
EndSplineSet
Fore
SplineSet
1295 541 m 0x37
 1295 353 1288 217 1182 103 c 0
 1117 33 1015 -16 890 -16 c 0xb7
 765 -16 663 33 598 103 c 0
 505 203 488 320 485 474 c 1
 310 474 l 1
 310 0 l 1
 160 0 l 1
 160 1082 l 1
 310 1082 l 1x6f
 310 608 l 1
 485 608 l 1
 488 762 505 879 598 979 c 0
 663 1049 765 1098 890 1098 c 0
 1015 1098 1117 1049 1182 979 c 0
 1288 865 1295 729 1295 541 c 0x37
1145 541 m 0
 1145 688 1144 812 1068 893 c 0
 1028 936 967 964 890 964 c 0
 813 964 752 936 712 893 c 0
 637 811 635 688 635 541 c 0
 635 394 636 270 712 189 c 0
 752 146 813 118 890 118 c 0
 967 118 1028 146 1068 189 c 0
 1143 271 1145 394 1145 541 c 0
EndSplineSet
Validated: 1
Layer: 2
EndChar
StartChar: uni0454
Encoding: 1108 1108 708
Width: 974
Flags: W
HStem: -16 134<387.746 768.244> 509 124<276 712> 964 134<390.045 755.167>
VStem: 125 150<236.828 509 633 836.872>
AnchorPoint: "Top" 530 1082 basechar 0
LayerCount: 3
Back
SplineSet
125 541 m 4
 125 664 126 800 194 915 c 4
 256 1018 374 1098 535 1098 c 4
 661 1098 777 1050 862 997 c 5
 791 879 l 5
 723 923 629 964 535 964 c 4
 427 964 369 914 331 859 c 4
 290.261791992 799.347623988 279.159326693 713.234763414 276.133549622 633 c 5
 712 633 l 5
 712 509 l 5
 275 509 l 5
 275 411 276 296 332 217 c 4
 376 154 449 118 550 118 c 4
 652 118 754 152 836 191 c 5
 893 67 l 5
 797 22 674 -16 550 -16 c 4
 390 -16 271 50 204 147 c 4
 125 261 125 400 125 541 c 4
EndSplineSet
Fore
SplineSet
125 541 m 4
 125 664 126 800 194 915 c 4
 256 1018 374 1098 535 1098 c 4
 661 1098 776 1060 861 1018 c 5
 808 897 l 5
 735 932 636 964 535 964 c 4
 427 964 369 914 331 859 c 4
 290 799 279 713 276 633 c 5
 712 633 l 5
 712 509 l 5
 275 509 l 5
 275 411 276 296 332 217 c 4
 376 154 449 118 550 118 c 4
 652 118 754 152 836 191 c 5
 893 67 l 5
 797 22 674 -16 550 -16 c 4
 390 -16 271 50 204 147 c 4
 125 261 125 400 125 541 c 4
EndSplineSet
Validated: 1
Layer: 2
EndChar
StartChar: uni045F
Encoding: 1119 1119 718
Width: 1110
Flags: W
HStem: 0 134<310 480 630 800> 1062 20G<160 310 800 950>
VStem: 160 150<134 1082> 480 150<-374 0> 800 150<134 1082>
CounterMasks: 1 38
LayerCount: 3
Back
Fore
SplineSet
800 134 m 1
 800 1082 l 1
 950 1082 l 1
 950 0 l 1
 630 0 l 1
 630 -374 l 5
 480 -374 l 5
 480 0 l 1
 160 0 l 1
 160 1082 l 1
 310 1082 l 1
 310 134 l 1
 800 134 l 1
EndSplineSet
Validated: 1
Layer: 2
EndChar
StartChar: wgrave
Encoding: 7809 7809 318
GlifName: wgrave
Width: 1326
VWidth: 0
Flags: HW
HStem: 0 21G<283.213 439.35 886.65 1042.79> 1062 20G<29 186.46 584.676 741.324 1139.54 1297>
LayerCount: 3
Back
Fore
SplineSet
449 1496 m 1
 618 1496 l 1
 772 1222 l 1
 614 1222 l 1
 449 1496 l 1
EndSplineSet
Refer: 44 119 N 1 0 0 1 0 0 3
Validated: 1
Layer: 2
EndChar
StartChar: wacute
Encoding: 7811 7811 320
GlifName: wacute
Width: 1326
VWidth: 0
Flags: HW
HStem: 0 21G<283.213 439.35 886.65 1042.79> 1062 20G<29 186.46 584.676 741.324 1139.54 1297>
LayerCount: 3
Back
Fore
SplineSet
875 1496 m 1
 710 1222 l 1
 552 1222 l 1
 706 1496 l 1
 875 1496 l 1
EndSplineSet
Refer: 44 119 N 1 0 0 1 0 0 3
Validated: 1
Layer: 2
EndChar
StartChar: endash
Encoding: 8211 8211 92
GlifName: endash
Width: 1064
Flags: W
HStem: 472 134<120 944>
LayerCount: 3
Back
Fore
SplineSet
120 472 m 1
 120 606 l 1
 944 606 l 1
 944 472 l 1
 120 472 l 1
EndSplineSet
Validated: 1
Layer: 2
EndChar
StartChar: emdash
Encoding: 8212 8212 93
GlifName: emdash
Width: 2088
Flags: W
HStem: 472 134<120 1968>
LayerCount: 3
Back
Fore
SplineSet
120 472 m 1
 120 606 l 1
 1968 606 l 1
 1968 472 l 1
 120 472 l 1
EndSplineSet
Validated: 1
Layer: 2
EndChar
StartChar: quotereversed
Encoding: 8219 8219 471
GlifName: quotereversed
Width: 460
Flags: W
HStem: 1088 424<235 274.609>
VStem: 120 220<1312.37 1492.89>
LayerCount: 3
Back
Fore
SplineSet
230 1512 m 0
 295 1512 340 1467 340 1402 c 0
 340 1353 313 1315 276 1301 c 1
 333 1088 l 1
 235 1088 l 1
 145 1310 l 2
 124 1361 120 1377 120 1402 c 0
 120 1467 165 1512 230 1512 c 0
EndSplineSet
Validated: 1
Layer: 2
EndChar
StartChar: minute
Encoding: 8242 8242 393
GlifName: minute
Width: 440
Flags: W
HStem: 1088 424<135.222 217>
VStem: 120 200<1261.34 1496.13>
LayerCount: 3
Back
Fore
SplineSet
320 1414 m 0
 320 1388 313 1367 305 1346 c 2
 217 1088 l 1
 120 1088 l 1
 120 1411 l 2
 120 1472 163 1512 218 1512 c 0
 281 1512 320 1468 320 1414 c 0
EndSplineSet
Validated: 1
Layer: 2
EndChar
StartChar: guilsinglleft
Encoding: 8249 8249 187
GlifName: guilsinglleft
Width: 610
Flags: W
VStem: 120 370
LayerCount: 3
Back
Fore
SplineSet
372 955 m 1
 490 883 l 1
 272 539 l 1
 490 195 l 1
 372 123 l 1
 120 539 l 1
 372 955 l 1
EndSplineSet
Validated: 1
Layer: 2
EndChar
StartChar: guilsinglright
Encoding: 8250 8250 188
GlifName: guilsinglright
Width: 610
Flags: W
VStem: 120 370
LayerCount: 3
Back
Fore
SplineSet
238 955 m 1
 490 539 l 1
 238 123 l 1
 120 195 l 1
 338 539 l 1
 120 883 l 1
 238 955 l 1
EndSplineSet
Validated: 1
Layer: 2
EndChar
StartChar: parenright.sub
Encoding: 8334 8334 874
Width: 523
Flags: W
VStem: 292 122<-95.9086 495.909>
LayerCount: 3
Back
Fore
SplineSet
292 200 m 5
 292 407 269 539 110 662 c 5
 178 747 l 5
 384 594 414 411 414 200 c 5
 414 -11 384 -194 178 -347 c 5
 110 -262 l 5
 269 -139 292 -7 292 200 c 5
EndSplineSet
Validated: 1
Layer: 2
EndChar
StartChar: dong
Encoding: 8363 8363 875
Width: 1115
Flags: W
HStem: -319 134<235 805> -16 134<391.219 689.896> 0 21G<805 955> 964 134<391.219 689.896> 1236 124<558 805 955 1090>
VStem: 125 150<241.25 840.75> 805 150<0 115 242.055 839.945 967 1236 1360 1496>
LayerCount: 3
Back
Fore
SplineSet
235 -185 m 1x9e
 805 -185 l 1
 805 -319 l 1
 235 -319 l 1
 235 -185 l 1x9e
1090 1360 m 5
 1090 1236 l 5
 955 1236 l 5
 955 0 l 5
 805 0 l 5xbe
 805 115 l 5
 733 35 644 -16 520 -16 c 4xde
 380 -16 266 51 205 144 c 4
 133 255 125 374 125 541 c 4
 125 708 133 827 205 938 c 4
 266 1031 380 1098 520 1098 c 4
 644 1098 733 1047 805 967 c 5
 805 1236 l 5
 558 1236 l 5
 558 1360 l 5
 805 1360 l 5
 805 1496 l 5
 955 1496 l 5
 955 1360 l 5
 1090 1360 l 5
540 964 m 4
 447 964 377 924 335 866 c 4
 280 790 275 683 275 541 c 4
 275 399 280 292 335 216 c 4
 377 158 447 118 540 118 c 4xde
 633 118 703 158 745 216 c 4
 800 292 805 399 805 541 c 4
 805 683 800 790 745 866 c 4
 703 924 633 964 540 964 c 4
EndSplineSet
Validated: 1
Layer: 2
EndChar
StartChar: uni20B9
Encoding: 8377 8377 399
GlifName: uni20B_9
Width: 1203
VWidth: 0
Flags: W
HStem: 0 21G<630.654 831> 566 140<180 239 424 602.987> 951 130<210 722 880.41 993> 1286 130<210 605.57 762 993>
VStem: 729 157<826.075 951 1081 1166.55>
LayerCount: 3
Back
Fore
SplineSet
762 1286 m 1
 842 1230 865 1154 881 1081 c 1
 1053 1081 l 1
 993 951 l 1
 886 951 l 1
 879 869 850 787 793 719 c 0
 709 618 588 572 424 567 c 1
 831 0 l 1
 645 0 l 1
 239 566 l 1
 180 566 l 1
 180 706 l 1
 320 706 l 2
 488 706 563 712 636 771 c 0
 696 819 718 883 729 951 c 1
 150 951 l 1
 210 1081 l 1
 722 1081 l 1
 700 1169 652 1219 588 1251 c 0
 519 1285 444 1286 320 1286 c 2
 150 1286 l 1
 210 1416 l 1
 1053 1416 l 1
 993 1286 l 1
 762 1286 l 1
EndSplineSet
Validated: 1
Layer: 2
EndChar
StartChar: uni20BD
Encoding: 8381 8381 877
Width: 1206
Flags: W
HStem: 0 21G<260 416> 208 140<140 260 416 672> 516 140<140 260 416 813.654> 1276 140<416 813.654>
VStem: 260 156<0 208 348 516 656 1276> 950 156<794.186 1137.81>
LayerCount: 3
Back
Fore
SplineSet
672 348 m 1
 672 208 l 1
 416 208 l 1
 416 0 l 1
 260 0 l 1
 260 208 l 1
 140 208 l 1
 140 348 l 1
 260 348 l 1
 260 516 l 1
 140 516 l 1
 140 656 l 1
 260 656 l 1
 260 1416 l 1
 562 1416 l 2
 645 1416 707 1416 775 1400 c 0
 987 1350 1106 1169 1106 966 c 0
 1106 763 987 582 775 532 c 0
 707 516 645 516 562 516 c 2
 416 516 l 1
 416 348 l 1
 672 348 l 1
562 1276 m 2
 416 1276 l 1
 416 656 l 1
 562 656 l 2
 648 656 709 656 767 677 c 0
 894 723 950 848 950 966 c 0
 950 1084 894 1209 767 1255 c 0
 709 1276 648 1276 562 1276 c 2
EndSplineSet
Validated: 1
Layer: 2
EndChar
StartChar: arrowleft
Encoding: 8592 8592 411
GlifName: arrowleft
Width: 1360
Flags: W
HStem: 474 134<352 1220>
LayerCount: 3
Back
Fore
SplineSet
674 100 m 1
 568 8 l 1
 140 500 l 1
 140 582 l 1
 568 1074 l 1
 674 982 l 1
 352 608 l 1
 1220 608 l 1
 1220 474 l 1
 352 474 l 1
 674 100 l 1
EndSplineSet
Validated: 1
Layer: 2
EndChar
StartChar: arrowupdn
Encoding: 8597 8597 416
GlifName: arrowupdn
Width: 1306
Flags: W
VStem: 578 150<-10 1090>
LayerCount: 3
Back
Fore
SplineSet
1094 307 m 1
 1186 201 l 1
 705 -216 l 1
 601 -216 l 1
 120 201 l 1
 212 307 l 1
 578 -10 l 1
 578 1090 l 1
 212 773 l 1
 120 879 l 1
 601 1296 l 1
 705 1296 l 1
 1186 879 l 1
 1094 773 l 1
 728 1090 l 1
 728 -10 l 1
 1094 307 l 1
EndSplineSet
Validated: 1
Layer: 2
EndChar
StartChar: partialdiff
Encoding: 8706 8706 407
GlifName: partialdiff
Width: 1090
VWidth: 0
Flags: W
HStem: -16 134<392.013 687.987> 964 134<390.326 688.873> 1375 134<314.498 686.785>
VStem: 125 150<241.383 839.999> 805 150<242.22 840.758 965 1256.98>
AnchorPoint: "DoubleTop" 25 0 basechar 0
AnchorPoint: "Apos" 25 0 basechar 0
AnchorPoint: "Center" 25 0 basechar 0
AnchorPoint: "Bottom" 506 -379 basechar 0
AnchorPoint: "Top" 496 977 basechar 0
LayerCount: 3
Back
Fore
SplineSet
520 1509 m 0
 681 1509 805 1443 876 1345 c 0
 955 1237 955 1123 955 1002 c 2
 955 541 l 2
 955 399 955 263 871 144 c 0
 806 51 687 -16 540 -16 c 0
 393 -16 274 51 209 144 c 0
 125 263 125 399 125 541 c 0
 125 674 125 821 205 938 c 0
 268 1030 376 1098 520 1098 c 0
 648 1098 734 1051 805 965 c 1
 805 1002 l 2
 805 1111 805 1197 751 1271 c 0
 705 1335 626 1375 520 1375 c 0
 423 1375 325 1343 243 1295 c 1
 176 1414 l 1
 277 1473 399 1509 520 1509 c 0
540 964 m 0
 447 964 376 923 335 865 c 0
 276 782 275 664 275 541 c 0
 275 420 275 300 335 216 c 0
 376 158 447 118 540 118 c 0
 633 118 704 158 745 216 c 0
 805 300 805 420 805 541 c 0
 805 664 804 782 745 865 c 0
 704 923 633 964 540 964 c 0
EndSplineSet
Validated: 1
Layer: 2
EndChar
StartChar: infinity
Encoding: 8734 8734 116
GlifName: infinity
Width: 1556
VWidth: 0
Flags: W
HStem: 166 134<368.514 584.577 971.423 1187.49> 782 134<368.957 584.577 971.423 1187.49>
VStem: 140 150<385.157 697.041> 1266 150<384.959 696.843>
LayerCount: 3
Back
Fore
SplineSet
1079 166 m 0
 931 166 834 259 778 374 c 1
 722 259 625 166 477 166 c 0
 269 166 140 348 140 541 c 0
 140 734 269 916 477 916 c 0
 625 916 722 823 778 708 c 1
 834 823 931 916 1079 916 c 0
 1287 916 1416 734 1416 541 c 0
 1416 348 1287 166 1079 166 c 0
699 541 m 1
 665 645 601 782 477 782 c 0
 358 782 290 658 290 541 c 0
 290 425 356 300 477 300 c 0
 601 300 665 437 699 541 c 1
857 541 m 1
 891 437 955 300 1079 300 c 0
 1200 300 1266 424 1266 541 c 0
 1266 657 1200 782 1079 782 c 0
 955 782 891 645 857 541 c 1
EndSplineSet
Validated: 1
Layer: 2
EndChar
StartChar: approxequal
Encoding: 8776 8776 390
GlifName: approxequal
Width: 1036
Flags: W
HStem: 286 134<507.124 804.988> 356 134<231.012 528.876> 591 134<507.124 804.988> 661 134<231.012 528.876>
LayerCount: 3
Back
Fore
SplineSet
378 356 m 0x40
 314 356 241 317 190 291 c 1
 130 413 l 1
 199 447 287 490 378 490 c 0x40
 497 490 579 420 658 420 c 0
 722 420 795 459 846 485 c 1
 906 363 l 1
 837 329 749 286 658 286 c 0x80
 539 286 457 356 378 356 c 0x40
378 661 m 0x10
 314 661 241 622 190 596 c 1
 130 718 l 1
 199 752 287 795 378 795 c 0x10
 497 795 579 725 658 725 c 0
 722 725 795 764 846 790 c 1
 906 668 l 1
 837 634 749 591 658 591 c 0x20
 539 591 457 661 378 661 c 0x10
EndSplineSet
Validated: 1
Layer: 2
EndChar
StartChar: notequal
Encoding: 8800 8800 119
GlifName: notequal
Width: 1060
Flags: W
HStem: 314 134<180 362 540 880> 634 134<180 520 698 880>
LayerCount: 3
Back
Fore
SplineSet
180 314 m 1
 180 448 l 1
 428 448 l 1
 520 634 l 1
 180 634 l 1
 180 768 l 1
 586 768 l 1
 718 1037 l 1
 830 1037 l 1
 698 768 l 1
 880 768 l 1
 880 634 l 1
 632 634 l 1
 540 448 l 1
 880 448 l 1
 880 314 l 1
 474 314 l 1
 342 45 l 1
 230 45 l 1
 362 314 l 1
 180 314 l 1
EndSplineSet
Validated: 1
Layer: 2
EndChar
StartChar: greaterequal
Encoding: 8805 8805 118
GlifName: greaterequal
Width: 1060
Flags: W
HStem: 264 134<180 880>
LayerCount: 3
Back
Fore
SplineSet
235 1144 m 1
 880 872 l 1
 880 750 l 1
 235 478 l 1
 183 604 l 1
 691 811 l 1
 183 1018 l 1
 235 1144 l 1
880 398 m 1
 880 264 l 1
 180 264 l 1
 180 398 l 1
 880 398 l 1
EndSplineSet
Validated: 1
Layer: 2
EndChar
StartChar: at.alt
Encoding: 1114171 -1 560
Width: 1948
Flags: W
HStem: -414 134<647.723 1501.94> -16 134<823.543 1121.36 1411.73 1589.2> 964 134<825.013 1120.99> 1362 134<649.858 1298.14>
VStem: 160 150<53.2914 1028.71> 558 150<242.001 840.617> 1238 150<241.278 839.78> 1638 150<167.739 1028.71>
LayerCount: 3
Back
Fore
SplineSet
974 1496 m 0
 1082 1496 1401 1496 1594 1303 c 0
 1787 1110 1788 861 1788 541 c 0
 1788 263 1788 229 1758 158 c 0
 1713 51 1605 -16 1491 -16 c 0
 1403 -16 1293 33 1264 148 c 1
 1195 37 1080 -16 953 -16 c 0
 809 -16 703 53 638 144 c 0
 558 261 558 408 558 541 c 0
 558 683 558 819 642 938 c 0
 707 1031 826 1098 973 1098 c 0
 1120 1098 1239 1031 1304 938 c 0
 1388 819 1388 683 1388 541 c 2
 1388 334 l 2
 1388 222 1388 193 1413 158 c 0
 1431 133 1460 118 1495 118 c 0
 1554 118 1598 163 1617 204 c 0
 1638 250 1638 275 1638 541 c 0
 1638 842 1637 1058 1485 1210 c 0
 1333 1362 1068 1362 974 1362 c 0
 880 1362 615 1362 463 1210 c 0
 311 1058 310 842 310 541 c 0
 310 240 311 24 463 -128 c 0
 615 -280 880 -280 1032 -280 c 0
 1274 -280 1481 -280 1703 -210 c 1
 1740 -340 l 1
 1491 -414 1287 -414 1035 -414 c 0
 866 -414 547 -414 354 -221 c 0
 161 -28 160 221 160 541 c 0
 160 861 161 1110 354 1303 c 0
 547 1496 866 1496 974 1496 c 0
973 964 m 0
 880 964 809 924 768 866 c 0
 708 782 708 662 708 541 c 0
 708 418 709 300 768 217 c 0
 809 159 880 118 973 118 c 0
 1066 118 1137 159 1178 217 c 0
 1237 300 1238 418 1238 541 c 0
 1238 662 1238 782 1178 866 c 0
 1137 924 1066 964 973 964 c 0
EndSplineSet
Validated: 1
Layer: 2
Substitution2: "'case' subtable" at.alt.case
EndChar
StartChar: colon.case
Encoding: 1114200 -1 645
Width: 500
Flags: W
HStem: 220 220<159.109 340.891> 916 220<159.109 340.891>
VStem: 140 220<239.109 420.891 935.109 1116.89>
LayerCount: 3
Back
Fore
SplineSet
250 440 m 4
 315 440 360 395 360 330 c 4
 360 265 315 220 250 220 c 4
 185 220 140 265 140 330 c 4
 140 395 185 440 250 440 c 4
250 1136 m 4
 315 1136 360 1091 360 1026 c 4
 360 961 315 916 250 916 c 4
 185 916 140 961 140 1026 c 4
 140 1091 185 1136 250 1136 c 4
EndSplineSet
Validated: 1
Layer: 2
EndChar
StartChar: eight.d
Encoding: 1114120 -1 499
Width: 740
Flags: W
HStem: -12 118<254.991 485.009> 330 118<262.807 477.193> 648 118<263.19 476.81>
VStem: 97 132<133.62 303.542> 114 132<467.294 627.768> 494 132<467.294 627.768> 511 132<133.62 303.542>
LayerCount: 3
Back
Fore
SplineSet
370 766 m 0xe8
 513 766 626 676 626 548 c 0xec
 626 485 599 430 543 392 c 1
 609 351 643 291 643 218 c 0
 643 82 522 -12 370 -12 c 0
 218 -12 97 82 97 218 c 0xf2
 97 291 131 351 197 392 c 1
 141 430 114 485 114 548 c 0
 114 676 227 766 370 766 c 0xe8
370 648 m 0
 289 648 246 608 246 548 c 0
 246 488 289 448 370 448 c 0
 451 448 494 488 494 548 c 0
 494 608 451 648 370 648 c 0
370 330 m 0
 278 330 229 284 229 218 c 0
 229 152 278 106 370 106 c 0
 462 106 511 152 511 218 c 0xf2
 511 284 462 330 370 330 c 0
EndSplineSet
Validated: 1
Layer: 2
EndChar
StartChar: ff.lig
Encoding: 1114176 -1 568
Width: 1165
Flags: W
HStem: 0 21G<210 360 760 910> 958 124<60 210 360 760 910 1110> 1338 134<387.026 579.859> 1378 134<944.63 1163.27>
VStem: 210 150<0 958 1082 1297.59> 760 150<0 958 1082 1344.23>
LayerCount: 3
Back
Fore
SplineSet
210 1151 m 2xdc
 210 1263 223 1321 264 1375 c 0
 307 1431 380 1472 475 1472 c 0
 524 1472 566 1463 606 1453 c 1
 574 1322 l 1
 545 1329 507 1338 475 1338 c 0xec
 434 1338 407 1324 388 1299 c 0
 365 1269 360 1232 360 1141 c 2
 360 1082 l 1
 760 1082 l 1
 760 1143 l 2
 760 1248 760 1325 815 1403 c 0
 860 1466 938 1512 1045 1512 c 0
 1091 1512 1140 1504 1185 1495 c 1
 1158 1363 l 1
 1125 1371 1080 1378 1045 1378 c 0
 995 1378 963 1361 941 1330 c 0
 910 1286 910 1234 910 1143 c 2
 910 1082 l 1
 1110 1082 l 1
 1110 958 l 1
 910 958 l 1
 910 0 l 1
 760 0 l 1
 760 958 l 1
 360 958 l 1
 360 0 l 1
 210 0 l 1
 210 958 l 1
 60 958 l 1
 60 1082 l 1
 210 1082 l 1
 210 1151 l 2xdc
EndSplineSet
Validated: 1
Layer: 2
Ligature2: "'dlig' subtable" f f
EndChar
StartChar: ffi.lig
Encoding: 1114177 -1 569
Width: 1600
Flags: W
HStem: 0 21G<210 360 760 910 1290 1440> 958 124<60 210 360 760 910 1290> 1338 134<387.026 579.859 1078.14 1330.18> 1378 134<944.159 1331.24>
VStem: 210 150<0 958 1082 1297.59> 760 150<0 958 1082 1344.54> 1290 150<0 958>
LayerCount: 3
Back
Fore
SplineSet
210 1151 m 2xde
 210 1263 223 1321 264 1375 c 0
 307 1431 380 1472 475 1472 c 0
 524 1472 566 1463 606 1453 c 1
 574 1322 l 1
 545 1329 507 1338 475 1338 c 0xee
 434 1338 407 1324 388 1299 c 0
 365 1269 360 1232 360 1141 c 2
 360 1082 l 1
 760 1082 l 1
 760 1143 l 2
 760 1255 760 1330 816 1405 c 0
 869 1476 956 1512 1074 1512 c 0
 1162 1512 1265 1497 1350 1483 c 1
 1328 1351 l 1
 1255 1362 1152 1378 1074 1378 c 0
 1011 1378 967 1366 940 1330 c 0
 910 1290 910 1240 910 1143 c 2
 910 1082 l 1
 1440 1082 l 1
 1440 0 l 1
 1290 0 l 1
 1290 958 l 1
 910 958 l 1
 910 0 l 1
 760 0 l 1
 760 958 l 1
 360 958 l 1
 360 0 l 1
 210 0 l 1
 210 958 l 1
 60 958 l 1
 60 1082 l 1
 210 1082 l 1
 210 1151 l 2xde
EndSplineSet
Validated: 1
Layer: 2
Ligature2: "'dlig' subtable" f f i
EndChar
StartChar: fi.lig
Encoding: 1114174 -1 566
Width: 1050
Flags: W
HStem: 0 21G<210 360 740 890> 958 124<60 210 360 740> 1378 134<394.159 781.244>
VStem: 210 150<0 958 1082 1344.54> 740 150<0 958>
LayerCount: 3
Back
Fore
SplineSet
210 1143 m 2
 210 1255 210 1330 266 1405 c 0
 319 1476 406 1512 524 1512 c 0
 612 1512 715 1497 800 1483 c 1
 778 1351 l 1
 705 1362 602 1378 524 1378 c 0
 461 1378 417 1366 390 1330 c 0
 360 1290 360 1240 360 1143 c 2
 360 1082 l 1
 890 1082 l 1
 890 0 l 1
 740 0 l 1
 740 958 l 1
 360 958 l 1
 360 0 l 1
 210 0 l 1
 210 958 l 1
 60 958 l 1
 60 1082 l 1
 210 1082 l 1
 210 1143 l 2
EndSplineSet
Validated: 1
Layer: 2
Ligature2: "'dlig' subtable" f i
EndChar
StartChar: five.d
Encoding: 1114117 -1 496
Width: 740
Flags: W
HStem: -12 118<218.624 468.74> 363 118<271.11 466.741> 636 118<270 574>
VStem: 138 132<449 636> 498 132<136.219 331.33>
LayerCount: 3
Back
Fore
SplineSet
574 754 m 1
 574 636 l 1
 270 636 l 1
 270 449 l 1
 303 472 337 481 377 481 c 0
 521 481 630 383 630 234 c 0
 630 82 506 -12 357 -12 c 0
 259 -12 178 26 118 72 c 1
 191 169 l 1
 231 138 291 106 357 106 c 0
 438 106 498 152 498 234 c 0
 498 315 441 363 357 363 c 0
 309 363 272 348 237 330 c 1
 138 381 l 1
 138 754 l 1
 574 754 l 1
EndSplineSet
Validated: 1
Layer: 2
EndChar
StartChar: fl.lig
Encoding: 1114175 -1 567
Width: 1050
Flags: W
HStem: 0 21G<210 360 740 890> 958 124<60 210 360 570> 1377 136<393.988 738.254>
VStem: 210 150<0 958 1082 1344.76> 740 150<0 1364>
LayerCount: 3
Back
Fore
SplineSet
890 0 m 1
 740 0 l 1
 740 1359 l 1
 666 1368 587 1377 524 1377 c 0
 461 1377 418 1365 390 1330 c 0
 360 1292 360 1240 360 1143 c 2
 360 1082 l 1
 570 1082 l 1
 570 958 l 1
 360 958 l 1
 360 0 l 1
 210 0 l 1
 210 958 l 1
 60 958 l 1
 60 1082 l 1
 210 1082 l 1
 210 1143 l 2
 210 1255 210 1331 266 1406 c 0
 319 1476 405 1513 524 1513 c 0
 601 1513 672 1504 740 1496 c 1
 890 1496 l 1
 890 0 l 1
EndSplineSet
Validated: 1
Layer: 2
Ligature2: "'dlig' subtable" f l
EndChar
StartChar: four.alt
Encoding: 1114172 -1 561
Width: 1161
Flags: W
HStem: 0 21G<759 915> 350 140<314 759 915 1025> 1396 20G<760.708 914.022>
VStem: 759 156<0 350 490 1160>
LayerCount: 3
Back
Fore
SplineSet
1025 490 m 1
 1025 350 l 1
 915 350 l 1
 915 0 l 1
 759 0 l 1
 759 350 l 1
 136 350 l 1
 136 456 l 1
 774 1416 l 1
 914 1416 l 1
 915 490 l 1
 1025 490 l 1
759 490 m 1
 758 1160 l 1
 314 490 l 1
 759 490 l 1
EndSplineSet
Validated: 1
Layer: 2
EndChar
StartChar: four.tab
Encoding: 1114183 -1 592
Width: 1108
Flags: W
HStem: 0 21G<712 868> 350 140<293 712 868 988> 1396 20G<525.42 691>
VStem: 712 156<0 350 490 840>
LayerCount: 3
Back
Fore
SplineSet
988 490 m 1
 988 350 l 1
 868 350 l 1
 868 0 l 1
 712 0 l 1
 712 350 l 1
 120 350 l 1
 120 451 l 1
 534 1416 l 1
 691 1416 l 1
 293 490 l 1
 712 490 l 1
 712 840 l 1
 868 840 l 1
 868 490 l 1
 988 490 l 1
EndSplineSet
Validated: 1
Layer: 2
EndChar
StartChar: gcircumflex.alt
Encoding: 1114167 -1 556
Width: 1076
VWidth: 0
Flags: W
HStem: -427 134<321.238 768.762> -37 134<362.898 767.958> 254 134<378.799 660.187> 964 134<379.813 660.156> 964 118<521.549 660.624 816 966>
VStem: 135 150<-252.315 -76.4046 494.404 857.885> 190 150<123.218 281.455> 745 150<477.361 874.515> 805 150<-252.315 -77.6216>
AnchorPoint: "Bottom" 545 -414 basechar 0
AnchorPoint: "Top" 520 1082 basechar 0
LayerCount: 3
Back
Fore
SplineSet
545 -37 m 0xe480
 439 -37 285 -38 285 -165 c 0
 285 -292 439 -293 545 -293 c 0
 651 -293 805 -292 805 -165 c 0
 805 -38 651 -37 545 -37 c 0xe480
520 1098 m 0xf2
 553 1098 589 1095 628 1082 c 1
 966 1082 l 1
 966 958 l 1
 816 958 l 1
 877 885 895 790 895 676 c 0
 895 552 872 453 808 377 c 0
 747 304 645 254 520 254 c 0
 470 254 418 262 369 283 c 1
 352 266 340 236 340 205 c 0xeb
 340 97 465 97 525 97 c 0
 619 97 673 97 748 78 c 0
 855 51 955 -30 955 -165 c 0
 955 -300 855 -380 748 -408 c 0
 675 -427 605 -427 545 -427 c 0
 485 -427 414 -427 342 -408 c 0
 235 -380 135 -300 135 -165 c 0xec80
 135 -62 198 15 272 50 c 1
 219 77 190 145 190 205 c 0
 190 255 208 315 260 350 c 1
 175 428 145 537 145 676 c 0
 145 800 168 899 232 975 c 0
 293 1048 395 1098 520 1098 c 0xf2
520 964 m 0xf1
 352 964 295 846 295 676 c 0
 295 506 352 388 520 388 c 0
 688 388 745 506 745 676 c 0
 745 846 688 964 520 964 c 0xf1
660 1222 m 1
 520 1360 l 1
 380 1222 l 1
 209 1222 l 1
 467 1496 l 1
 573 1496 l 1
 831 1222 l 1
 660 1222 l 1
EndSplineSet
Validated: 1
Layer: 2
EndChar
StartChar: lacute.alt
Encoding: 1114161 -1 550
Width: 470
VWidth: 0
Flags: W
HStem: 0 21G<160 310>
VStem: 160 150<0 1496>
LayerCount: 3
Back
Fore
SplineSet
310 0 m 1
 160 0 l 1
 160 1496 l 1
 310 1496 l 1
 310 0 l 1
467 1870 m 1
 302 1596 l 1
 144 1596 l 1
 298 1870 l 1
 467 1870 l 1
EndSplineSet
Validated: 1
Layer: 2
EndChar
StartChar: lcaron.alt
Encoding: 1114163 -1 552
Width: 824
VWidth: 0
Flags: W
HStem: 0 21G<160 310> 1086 21G<471 577.108>
VStem: 160 150<0 1496> 464 220<1310.37 1490.89>
LayerCount: 3
Back
Fore
SplineSet
310 0 m 1
 160 0 l 1
 160 1496 l 1
 310 1496 l 1
 310 0 l 1
574 1510 m 0
 639 1510 684 1465 684 1400 c 0
 684 1375 680 1359 659 1308 c 2
 569 1086 l 1
 471 1086 l 1
 528 1299 l 1
 491 1313 464 1351 464 1400 c 0
 464 1465 509 1510 574 1510 c 0
EndSplineSet
Validated: 1
Layer: 2
EndChar
StartChar: ldot.alt
Encoding: 1114164 -1 553
Width: 854
VWidth: 0
Flags: W
HStem: 0 21G<160 310> 614 220<513.109 694.891>
VStem: 160 150<0 1496> 494 220<633.109 814.891>
LayerCount: 3
Back
Fore
SplineSet
310 0 m 1
 160 0 l 1
 160 1496 l 1
 310 1496 l 1
 310 0 l 1
604 834 m 0
 669 834 714 789 714 724 c 0
 714 659 669 614 604 614 c 0
 539 614 494 659 494 724 c 0
 494 789 539 834 604 834 c 0
EndSplineSet
Validated: 1
Layer: 2
EndChar
StartChar: seven.d
Encoding: 1114119 -1 498
Width: 740
Flags: W
HStem: 0 21G<170 322.375> 636 118<116 468>
VStem: 116 512<672 754>
LayerCount: 3
Back
Fore
SplineSet
116 636 m 1
 116 754 l 1
 628 754 l 1
 628 672 l 1
 313 0 l 1
 170 0 l 1
 468 636 l 1
 116 636 l 1
EndSplineSet
Validated: 1
Layer: 2
EndChar
StartChar: ubreve.alt
Encoding: 1114149 -1 538
Width: 1100
VWidth: 0
Flags: W
HStem: -16 134<393.767 692.081> 0 21G<790 940> 1062 20G<150 300 790 940> 1209 124<457.559 634.441>
VStem: 150 150<214.423 1082> 281 140<1369 1497> 671 140<1369 1497> 790 150<0 112 217.927 1082>
LayerCount: 3
Back
Fore
SplineSet
525 -16 m 0xb9
 387 -16 280 46 219 134 c 0
 150 238 150 351 150 496 c 2
 150 1082 l 1
 300 1082 l 1
 300 496 l 2
 300 360 300 276 348 208 c 0
 387 153 457 118 545 118 c 0xb9
 632 118 700 154 739 208 c 0
 790 278 790 360 790 496 c 2
 790 1082 l 1
 940 1082 l 1
 940 0 l 1
 790 0 l 1x79
 790 112 l 1
 722 29 632 -16 525 -16 c 0xb9
281 1497 m 1x36
 421 1497 l 1
 421 1382 483 1333 546 1333 c 0
 609 1333 671 1382 671 1497 c 1
 811 1497 l 1
 811 1345 713 1209 546 1209 c 0
 379 1209 281 1345 281 1497 c 1x36
EndSplineSet
Validated: 1
Layer: 2
EndChar
StartChar: umacron.alt
Encoding: 1114148 -1 537
Width: 1100
VWidth: 0
Flags: W
HStem: -16 134<393.767 692.081> 0 21G<790 940> 1062 20G<150 300 790 940> 1252 134<260 830>
VStem: 150 150<214.423 1082> 790 150<0 112 217.927 1082>
LayerCount: 3
Back
Fore
SplineSet
525 -16 m 0xbc
 387 -16 280 46 219 134 c 0
 150 238 150 351 150 496 c 2
 150 1082 l 1
 300 1082 l 1
 300 496 l 2
 300 360 300 276 348 208 c 0
 387 153 457 118 545 118 c 0xbc
 632 118 700 154 739 208 c 0
 790 278 790 360 790 496 c 2
 790 1082 l 1
 940 1082 l 1
 940 0 l 1
 790 0 l 1x7c
 790 112 l 1
 722 29 632 -16 525 -16 c 0xbc
260 1386 m 1
 830 1386 l 1
 830 1252 l 1
 260 1252 l 1
 260 1386 l 1
EndSplineSet
Validated: 1
Layer: 2
EndChar
StartChar: yacute.alt
Encoding: 1114155 -1 544
Width: 987
VWidth: 0
Flags: W
HStem: 1062 20G<60 223.824 766.324 927>
LayerCount: 3
Back
Fore
SplineSet
472 -414 m 1
 327 -414 l 1
 452 -2 l 1
 60 1082 l 1
 217 1082 l 1
 520 194 l 1
 772 1082 l 1
 927 1082 l 1
 472 -414 l 1
726 1496 m 1
 561 1222 l 1
 403 1222 l 1
 557 1496 l 1
 726 1496 l 1
EndSplineSet
Validated: 1
Layer: 2
EndChar
StartChar: ycircumflex.alt
Encoding: 1114157 -1 546
Width: 987
VWidth: 0
Flags: W
HStem: 1062 20G<60 223.824 766.324 927>
LayerCount: 3
Back
Fore
SplineSet
472 -414 m 1
 327 -414 l 1
 452 -2 l 1
 60 1082 l 1
 217 1082 l 1
 520 194 l 1
 772 1082 l 1
 927 1082 l 1
 472 -414 l 1
634 1222 m 1
 494 1360 l 1
 354 1222 l 1
 183 1222 l 1
 441 1496 l 1
 547 1496 l 1
 805 1222 l 1
 634 1222 l 1
EndSplineSet
Validated: 1
Layer: 2
EndChar
StartChar: ygrave.alt
Encoding: 1114158 -1 547
Width: 987
VWidth: 0
Flags: W
HStem: 1062 20G<60 223.824 766.324 927>
LayerCount: 3
Back
Fore
SplineSet
472 -414 m 1
 327 -414 l 1
 452 -2 l 1
 60 1082 l 1
 217 1082 l 1
 520 194 l 1
 772 1082 l 1
 927 1082 l 1
 472 -414 l 1
260 1496 m 1
 429 1496 l 1
 583 1222 l 1
 425 1222 l 1
 260 1496 l 1
EndSplineSet
Validated: 1
Layer: 2
EndChar
StartChar: ytilde.alt
Encoding: 1114159 -1 548
Width: 987
VWidth: 0
Flags: W
HStem: 1062 20G<60 223.824 766.324 927> 1224 124<514.843 650.497> 1304 124<337.559 472.748>
LayerCount: 3
Back
Fore
SplineSet
472 -414 m 1x80
 327 -414 l 1
 452 -2 l 1
 60 1082 l 1
 217 1082 l 1
 520 194 l 1
 772 1082 l 1
 927 1082 l 1
 472 -414 l 1x80
313 1218 m 1
 191 1282 l 1
 228 1350 295 1428 404 1428 c 0xa0
 514 1428 543 1348 584 1348 c 0
 627 1348 655 1393 675 1434 c 1
 797 1370 l 1
 761 1303 693 1224 584 1224 c 0xc0
 473 1224 445 1304 404 1304 c 0xa0
 361 1304 333 1259 313 1218 c 1
EndSplineSet
Validated: 1
Layer: 2
EndChar
StartChar: zero.d
Encoding: 1114112 -1 491
Width: 740
Flags: W
HStem: -12 118<259.062 480.938> 648 118<259.062 480.938>
VStem: 100 132<134.166 619.834> 508 132<134.166 619.834>
LayerCount: 3
Back
Fore
SplineSet
370 766 m 0
 494 766 587 709 620 614 c 0
 640 557 640 479 640 377 c 0
 640 275 640 197 620 140 c 0
 587 45 494 -12 370 -12 c 0
 246 -12 153 45 120 140 c 0
 100 197 100 275 100 377 c 0
 100 479 100 557 120 614 c 0
 153 709 246 766 370 766 c 0
370 648 m 0
 306 648 262 626 246 578 c 0
 232 536 232 469 232 377 c 0
 232 285 232 218 246 176 c 0
 262 128 306 106 370 106 c 0
 434 106 478 128 494 176 c 0
 508 218 508 285 508 377 c 0
 508 469 508 536 494 578 c 0
 478 626 434 648 370 648 c 0
EndSplineSet
Validated: 1
Layer: 2
EndChar
